<svg width="9" height="5" viewBox="0 0 9 5" fill="none" xmlns="http://www.w3.org/2000/svg">
<path d="M4.50001 4.99999C4.39244 5.0005 4.28575 4.98082 4.18637 4.94208C4.08699 4.90333 3.99679 4.84634 3.92122 4.77449L0.131803 1.18695C0.0320005 1.04253 -0.0132322 0.870737 0.00335603 0.699253C0.0199334 0.527769 0.0973819 0.366473 0.223274 0.241227C0.349165 0.115971 0.516205 0.034011 0.697638 0.00848828C0.879072 -0.0170242 1.06437 0.0153556 1.22385 0.100472L4.50001 3.17547L7.77616 0.100472C7.9356 0.0153556 8.12092 -0.0170242 8.30242 0.00848828C8.48381 0.034011 8.6509 0.115971 8.7767 0.241227C8.90261 0.366473 8.98004 0.527769 8.99664 0.699253C9.01324 0.870737 8.96803 1.04253 8.86821 1.18695L5.04603 4.77449C4.90134 4.91225 4.70597 4.99292 4.50001 4.99999Z" fill="black"/>
</svg>
