<svg width="29" height="26" viewBox="0 0 29 26" fill="none" xmlns="http://www.w3.org/2000/svg">
<g clip-path="url(#clip0_1_306)">
<path d="M27.1875 11.1429C27.6878 11.1429 28.115 11.3242 28.469 11.6869C28.823 12.0497 29 12.4874 29 13C29 13.5126 28.823 13.9503 28.469 14.3131C28.115 14.6758 27.6878 14.8571 27.1875 14.8571H26.9751L25.3467 24.4621C25.2712 24.907 25.0635 25.2746 24.7236 25.5647C24.3838 25.8549 23.9967 26 23.5625 26H5.4375C5.00326 26 4.61621 25.8549 4.27637 25.5647C3.93652 25.2746 3.72884 24.907 3.65332 24.4621L2.0249 14.8571H1.8125C1.31217 14.8571 0.88501 14.6758 0.531006 14.3131C0.177002 13.9503 0 13.5126 0 13C0 12.4874 0.177002 12.0497 0.531006 11.6869C0.88501 11.3242 1.31217 11.1429 1.8125 11.1429H27.1875ZM6.86768 22.75C7.11312 22.7307 7.31844 22.6218 7.48364 22.4235C7.64884 22.2253 7.72201 22.0004 7.70312 21.7489L7.25 15.7132C7.23112 15.4617 7.12492 15.2513 6.9314 15.082C6.73787 14.9128 6.51839 14.8378 6.27295 14.8571C6.02751 14.8765 5.82218 14.9853 5.65698 15.1836C5.49178 15.3819 5.41862 15.6068 5.4375 15.8583L5.89062 21.894C5.90951 22.1358 6.00627 22.3389 6.18091 22.5033C6.35555 22.6678 6.56087 22.75 6.79688 22.75H6.86768ZM12.6875 21.8214V15.7857C12.6875 15.5342 12.5978 15.3166 12.4185 15.1328C12.2391 14.949 12.0267 14.8571 11.7812 14.8571C11.5358 14.8571 11.3234 14.949 11.144 15.1328C10.9647 15.3166 10.875 15.5342 10.875 15.7857V21.8214C10.875 22.0729 10.9647 22.2905 11.144 22.4743C11.3234 22.6581 11.5358 22.75 11.7812 22.75C12.0267 22.75 12.2391 22.6581 12.4185 22.4743C12.5978 22.2905 12.6875 22.0729 12.6875 21.8214ZM18.125 21.8214V15.7857C18.125 15.5342 18.0353 15.3166 17.856 15.1328C17.6766 14.949 17.4642 14.8571 17.2188 14.8571C16.9733 14.8571 16.7609 14.949 16.5815 15.1328C16.4022 15.3166 16.3125 15.5342 16.3125 15.7857V21.8214C16.3125 22.0729 16.4022 22.2905 16.5815 22.4743C16.7609 22.6581 16.9733 22.75 17.2188 22.75C17.4642 22.75 17.6766 22.6581 17.856 22.4743C18.0353 22.2905 18.125 22.0729 18.125 21.8214ZM23.1094 21.894L23.5625 15.8583C23.5814 15.6068 23.5082 15.3819 23.343 15.1836C23.1778 14.9853 22.9725 14.8765 22.7271 14.8571C22.4816 14.8378 22.2621 14.9128 22.0686 15.082C21.8751 15.2513 21.7689 15.4617 21.75 15.7132L21.2969 21.7489C21.278 22.0004 21.3512 22.2253 21.5164 22.4235C21.6816 22.6218 21.8869 22.7307 22.1323 22.75H22.2031C22.4391 22.75 22.6444 22.6678 22.8191 22.5033C22.9937 22.3389 23.0905 22.1358 23.1094 21.894ZM6.74023 4.23661L5.42334 10.2143H3.5542L4.98438 3.81585C5.16374 2.96466 5.58382 2.27065 6.24463 1.73382C6.90544 1.19699 7.66064 0.928571 8.51025 0.928571H10.875C10.875 0.677083 10.9647 0.459449 11.144 0.27567C11.3234 0.0918899 11.5358 0 11.7812 0H17.2188C17.4642 0 17.6766 0.0918899 17.856 0.27567C18.0353 0.459449 18.125 0.677083 18.125 0.928571H20.4897C21.3394 0.928571 22.0946 1.19699 22.7554 1.73382C23.4162 2.27065 23.8363 2.96466 24.0156 3.81585L25.4458 10.2143H23.5767L22.2598 4.23661C22.1559 3.81101 21.9412 3.4628 21.6155 3.19196C21.2898 2.92113 20.9146 2.78571 20.4897 2.78571H18.125C18.125 3.0372 18.0353 3.25484 17.856 3.43862C17.6766 3.6224 17.4642 3.71429 17.2188 3.71429H11.7812C11.5358 3.71429 11.3234 3.6224 11.144 3.43862C10.9647 3.25484 10.875 3.0372 10.875 2.78571H8.51025C8.08545 2.78571 7.71021 2.92113 7.38452 3.19196C7.05884 3.4628 6.84408 3.81101 6.74023 4.23661Z" fill="#7ACB0B"/>
</g>
<defs>
<clipPath id="clip0_1_306">
<rect width="29" height="26" fill="white"/>
</clipPath>
</defs>
</svg>
