<svg width="668" height="668" viewBox="0 0 668 668" fill="none" xmlns="http://www.w3.org/2000/svg">
<path fill-rule="evenodd" clip-rule="evenodd" d="M334 667.333C518.1 667.333 667.333 518.1 667.333 334C667.333 149.9 518.1 0.666504 334 0.666504C149.9 0.666504 0.666748 149.9 0.666748 334C0.666748 518.1 149.9 667.333 334 667.333ZM284 500.366C284 471.466 305.967 450.666 333.7 450.666C362.033 450.666 384 471.466 384 500.366C384 529.266 362.033 550.666 333.7 550.666C305.967 550.666 284 529.266 284 500.366ZM306.4 134C304.151 134.002 301.926 134.46 299.858 135.345C297.791 136.23 295.924 137.524 294.37 139.15C292.816 140.775 291.607 142.699 290.816 144.804C290.025 146.909 289.668 149.153 289.767 151.4L299.967 384.733C300.156 389.025 301.995 393.078 305.1 396.047C308.206 399.016 312.337 400.671 316.633 400.666H351.4C355.696 400.671 359.828 399.016 362.933 396.047C366.039 393.078 367.878 389.025 368.067 384.733L378.233 151.4C378.332 149.15 377.975 146.904 377.182 144.796C376.388 142.689 375.177 140.764 373.619 139.138C372.061 137.512 370.19 136.218 368.119 135.335C366.047 134.452 363.819 133.998 361.567 134H306.4Z" fill="#7ACB0B"/>
</svg>
