<svg width="21" height="23" viewBox="0 0 21 23" fill="none" xmlns="http://www.w3.org/2000/svg">
<path d="M6.83333 4.5L10.3333 1M10.3333 1L13.8333 4.5M10.3333 1V12.6667M4.50027 9.16667C3.41307 9.16667 2.86948 9.16667 2.44067 9.34423C1.86894 9.58107 1.41443 10.0356 1.17761 10.6074C1 11.0361 1 11.5794 1 12.6667V18.2667C1 19.5734 1 20.2264 1.25432 20.7255C1.47802 21.1645 1.83472 21.5222 2.27377 21.7459C2.7724 22 3.42549 22 4.72973 22H15.9375C17.2417 22 17.8939 22 18.3925 21.7459C18.8316 21.5222 19.1889 21.1645 19.4126 20.7255C19.6667 20.2269 19.6667 19.5745 19.6667 18.2703V12.6667C19.6667 11.5794 19.6665 11.0361 19.489 10.6074C19.2521 10.0356 18.798 9.58107 18.2263 9.34423C17.7974 9.16667 17.2539 9.16667 16.1667 9.16667" stroke="#7ACB0B" stroke-width="1.3" stroke-linecap="round" stroke-linejoin="round"/>
</svg>
