<svg width="32" height="24" viewBox="0 0 32 24" fill="none" xmlns="http://www.w3.org/2000/svg">
<path d="M28.4444 0H3.55556C2.61256 0 1.70819 0.37754 1.0414 1.04957C0.374602 1.72159 0 2.63305 0 3.58344L0 7.16688H32V3.58344C32 2.63305 31.6254 1.72159 30.9586 1.04957C30.2918 0.37754 29.3874 0 28.4444 0Z" fill="#D90012"/>
<path d="M3.55556 23.2924H28.4444C29.3874 23.2924 30.2918 22.9148 30.9586 22.2428C31.6254 21.5708 32 20.6593 32 19.7089V16.1255H0V19.7089C0 20.6593 0.374602 21.5708 1.0414 22.2428C1.70819 22.9148 2.61256 23.2924 3.55556 23.2924Z" fill="#F2A800"/>
<path d="M0 7.16699H32V16.1256H0V7.16699Z" fill="#0033A0"/>
</svg>
