<svg width="32" height="24" viewBox="0 0 32 24" fill="none" xmlns="http://www.w3.org/2000/svg">
<path d="M5.33301 23.2924H28.4441C29.3871 23.2924 30.2915 22.9148 30.9583 22.2428C31.6251 21.5708 31.9997 20.6593 31.9997 19.7089V16.1255H5.33301V23.2924Z" fill="#4AA657"/>
<path d="M28.4441 0H5.33301V16.1255H31.9997V3.58344C31.9997 2.63305 31.6251 1.72159 30.9583 1.04957C30.2915 0.37754 29.3871 0 28.4441 0Z" fill="#C8313E"/>
<path d="M0.680972 21.6691L1.23653 20.6756L1.80631 21.6977L1.32453 22.478C1.47609 22.6027 1.63786 22.7142 1.80808 22.8113L2.51208 21.5239L1.24986 19.485L0.256972 21.0312C0.419639 21.4433 0.657861 21.8124 0.951195 22.1331L0.680972 21.6691ZM5.31653 21.5876L3.98586 19.5969L2.65075 21.5419L3.79386 23.2924H4.36897L5.31653 21.5876ZM4.02497 20.6747L4.59475 21.6968L4.02497 22.6205L3.46942 21.6691L4.02497 20.6747ZM5.33342 11.9445V11.1436L5.05519 11.5342L5.33342 11.9445ZM2.51119 1.81501L1.71653 0.530349C1.02065 0.956651 0.491722 1.61153 0.21875 2.38478L1.36097 3.91939L2.51119 1.81501ZM0.680972 1.96014L1.23653 0.966634L1.80631 1.98881L1.23653 2.91155L0.680972 1.96014ZM4.10408 4.05914L5.31653 1.87772L4.06142 0H3.90942L2.65164 1.83293L4.10408 4.05914ZM4.59386 1.98791L4.02497 2.91155L3.46942 1.96014L4.02497 0.966634L4.59386 1.98791Z" fill="#C8313E"/>
<path d="M4.40267 8.95853L5.18044 7.65684L5.33333 7.72493V7.16681L4.08356 5.20667L2.58311 7.30656L1.24978 5.15112L0 7.09783V7.68014L0.763556 8.95853L1.30489 8.16032L0.916444 7.61474L1.208 7.22235L2.05511 8.32784L0.805333 10.3991L0 9.28194V10.6732L0.0515556 10.6042L0.898667 11.7097L0 13.2004V14.2549L0.805333 13.1368L2.05511 15.2081L1.35289 16.1254L1.208 16.3144L1.06756 16.1254L0.916444 15.9221L1.30578 15.3765L0.764444 14.5783L0 15.8576V16.3727L1.27822 18.3373L2.52267 16.1254L2.56978 16.0412L2.62133 16.1254L4.056 18.4627L5.33333 16.181V15.8307L5.22222 15.8808L4.44444 14.5783L3.90222 15.3765L4.29156 15.9221L4.14044 16.1254L4 16.3144L3.85511 16.1254L3.15289 15.2089L4.40267 13.1377L5.33333 14.4287V13.4056L4.30489 11.7017L5.152 10.5962L5.33333 10.8398V9.0508L4.36089 10.4009L3.11111 8.32874L3.95822 7.22325L4.24978 7.61474L3.86044 8.16032L4.40267 8.95853ZM3.80889 10.778V12.5052L2.56889 14.4788L1.40089 12.4972V10.7879L2.56889 8.80534L3.80889 10.778Z" fill="#C8313E"/>
<path d="M1.80566 10.5916L2.33721 11.569L1.80566 12.5464L2.19499 12.7614L2.59055 12.0349L2.9861 12.7614L3.37544 12.5464L2.84388 11.569L3.37544 10.5916L2.9861 10.3766L2.59055 11.1032L2.19499 10.3766L1.80566 10.5916ZM0.0234375 18.9814L0.578993 19.9328L1.14877 19.0091L0.578993 17.987L0.0234375 18.9814ZM1.37099 18.9814L1.92655 19.9328L2.49544 19.0091L1.92655 17.987L1.37099 18.9814ZM2.6901 18.9814L3.24566 19.9328L3.81544 19.0091L3.24566 17.987L2.6901 18.9814ZM4.10521 18.9814L4.66077 19.9328L5.22966 19.0091L4.66077 17.987L4.10521 18.9814ZM0.0234375 4.59117L0.578993 5.54347L1.14877 4.61894L0.578993 3.59766L0.0234375 4.59117ZM1.37099 4.59117L1.92655 5.54347L2.49544 4.61894L1.92655 3.59766L1.37099 4.59117ZM2.6901 4.59117L3.24566 5.54347L3.81544 4.61894L3.24566 3.59766L2.6901 4.59117ZM4.10521 4.59117L4.66077 5.54347L5.22966 4.61894L4.66077 3.59766L4.10521 4.59117Z" fill="#C8313E"/>
</svg>
