<svg width="32" height="24" viewBox="0 0 32 24" fill="none" xmlns="http://www.w3.org/2000/svg">
<path d="M32 19.5556C32 20.4985 31.6254 21.4029 30.9586 22.0697C30.2918 22.7365 29.3874 23.1111 28.4444 23.1111H3.55556C2.61256 23.1111 1.70819 22.7365 1.0414 22.0697C0.374602 21.4029 0 20.4985 0 19.5556V3.55556C0 2.61256 0.374602 1.70819 1.0414 1.0414C1.70819 0.374602 2.61256 0 3.55556 0H28.4444C29.3874 0 30.2918 0.374602 30.9586 1.0414C31.6254 1.70819 32 2.61256 32 3.55556V19.5556Z" fill="#00AFCA"/>
<path d="M16.9197 12.7803C18.3262 12.7803 19.4664 11.6402 19.4664 10.2337C19.4664 8.82719 18.3262 7.68701 16.9197 7.68701C15.5132 7.68701 14.373 8.82719 14.373 10.2337C14.373 11.6402 15.5132 12.7803 16.9197 12.7803Z" fill="#FFCC4D"/>
<path d="M16.9217 7.49512C17.0728 7.49334 17.1279 7.39823 17.1279 7.28534C17.1279 7.13423 16.9217 5.95557 16.9217 5.95557C16.9217 5.95557 16.7119 7.13423 16.7119 7.28534C16.7119 7.39823 16.7688 7.49512 16.9217 7.49512ZM16.9217 12.9867C16.7688 12.9876 16.7119 13.0827 16.7119 13.1956C16.7119 13.3476 16.9217 14.5102 16.9217 14.5102C16.9217 14.5102 17.1279 13.3467 17.1279 13.1956C17.1288 13.0836 17.0728 12.9867 16.9217 12.9867ZM16.2097 12.8791C16.063 12.8418 15.9857 12.9191 15.9564 13.0285C15.9172 13.1742 15.8115 14.3671 15.8115 14.3671C15.8115 14.3671 16.319 13.2818 16.3581 13.136C16.3884 13.0267 16.3572 12.9182 16.2097 12.8791ZM17.6319 7.57423C17.7795 7.61334 17.8595 7.53512 17.8888 7.42668C17.9279 7.28001 18.0257 6.10223 18.0257 6.10223C18.0257 6.10223 17.5261 7.17157 17.4861 7.31912C17.4568 7.42757 17.4852 7.53512 17.6319 7.57423ZM15.5492 12.6036C15.4168 12.5298 15.3217 12.584 15.2657 12.6827C15.1901 12.8133 14.7795 13.9378 14.7795 13.9378C14.7795 13.9378 15.5501 13.0213 15.6257 12.8907C15.6826 12.792 15.6817 12.68 15.5492 12.6036ZM18.295 7.84712C18.4275 7.92357 18.5252 7.86846 18.5812 7.77068C18.6577 7.63912 19.0568 6.52801 19.0568 6.52801C19.0568 6.52801 18.2959 7.43201 18.2195 7.56268C18.1644 7.66046 18.1644 7.77157 18.295 7.84712ZM14.9821 12.1689C14.8737 12.0631 14.7679 12.0907 14.6879 12.1707C14.5812 12.2782 13.8932 13.2578 13.8932 13.2578C13.8932 13.2578 14.8755 12.5716 14.9821 12.4658C15.0621 12.3858 15.0906 12.2756 14.9821 12.1689ZM18.8657 8.28446C18.9741 8.39201 19.0817 8.36446 19.1617 8.28446C19.2692 8.17779 19.943 7.20623 19.943 7.20623C19.943 7.20623 18.975 7.88357 18.8684 7.99112C18.7884 8.07112 18.759 8.17779 18.8657 8.28446ZM14.5484 11.6009C14.471 11.4711 14.3617 11.4711 14.263 11.5271C14.1315 11.6027 13.2141 12.3707 13.2141 12.3707C13.2141 12.3707 14.3404 11.9636 14.471 11.888C14.5697 11.8311 14.6248 11.7333 14.5484 11.6009ZM19.3039 8.85512C19.3812 8.98757 19.4932 8.98846 19.5901 8.93246C19.7217 8.85601 20.6239 8.09334 20.6239 8.09334C20.6239 8.09334 19.5137 8.49601 19.3821 8.57157C19.2844 8.62846 19.2292 8.72357 19.3039 8.85512ZM14.2755 10.9405C14.2346 10.7947 14.1279 10.7662 14.0186 10.7947C13.8728 10.8338 12.7875 11.3387 12.7875 11.3387C12.7875 11.3387 13.9804 11.2365 14.1261 11.1973C14.2355 11.1671 14.3146 11.088 14.2755 10.9405ZM19.5786 9.51823C19.6195 9.66579 19.7261 9.69601 19.8355 9.66668C19.9821 9.62757 21.0515 9.12446 21.0515 9.12446C21.0515 9.12446 19.8746 9.22579 19.727 9.2649C19.6186 9.29334 19.5395 9.37246 19.5786 9.51823ZM14.1821 10.232C14.1804 10.0809 14.0852 10.0258 13.9724 10.0258C13.8212 10.0258 12.6426 10.232 12.6426 10.232C12.6426 10.232 13.8212 10.4418 13.9724 10.4418C14.0852 10.4418 14.1821 10.3849 14.1821 10.232ZM19.6737 10.232C19.6746 10.3849 19.7697 10.4418 19.8826 10.4418C20.0346 10.4418 21.1972 10.232 21.1972 10.232C21.1972 10.232 20.0337 10.0258 19.8826 10.0258C19.7697 10.0249 19.6737 10.0809 19.6737 10.232ZM14.2755 9.52357C14.3128 9.3769 14.2355 9.29957 14.1261 9.27023C13.9804 9.23112 12.7875 9.12534 12.7875 9.12534C12.7875 9.12534 13.8728 9.6329 14.0186 9.67201C14.1279 9.70134 14.2364 9.67112 14.2755 9.52357ZM19.5795 10.9449C19.5404 11.0925 19.6186 11.1725 19.727 11.2018C19.8737 11.2409 21.0515 11.3387 21.0515 11.3387C21.0515 11.3387 19.9821 10.8382 19.8346 10.7991C19.7261 10.7707 19.6186 10.7982 19.5795 10.9449ZM14.5492 8.86312C14.623 8.73157 14.5688 8.63557 14.4701 8.57957C14.3395 8.50401 13.215 8.09334 13.215 8.09334C13.215 8.09334 14.1315 8.86401 14.2621 8.93957C14.3608 8.99646 14.4728 8.99468 14.5492 8.86312ZM19.3057 11.6089C19.2292 11.7413 19.2844 11.8391 19.3821 11.8951C19.5128 11.9716 20.6248 12.3707 20.6248 12.3707C20.6248 12.3707 19.7208 11.6107 19.5901 11.5342C19.4924 11.4782 19.3812 11.4782 19.3057 11.6089ZM14.9839 8.29601C15.0897 8.18757 15.0621 8.08179 14.9821 8.00179C14.8746 7.89512 13.895 7.20712 13.895 7.20712C13.895 7.20712 14.5812 8.18934 14.687 8.29601C14.767 8.37601 14.8764 8.40446 14.9839 8.29601ZM18.8684 12.1796C18.7608 12.288 18.7884 12.3965 18.8684 12.4756C18.975 12.5831 19.9466 13.2569 19.9466 13.2569C19.9466 13.2569 19.2692 12.2889 19.1617 12.1813C19.0817 12.1013 18.975 12.072 18.8684 12.1796ZM15.5528 7.86134C15.6817 7.78401 15.6826 7.67468 15.6266 7.57601C15.551 7.44534 14.783 6.52712 14.783 6.52712C14.783 6.52712 15.1901 7.65334 15.2657 7.78401C15.3217 7.88268 15.4204 7.93779 15.5528 7.86134ZM18.2986 12.6178C18.167 12.6942 18.1652 12.8053 18.2212 12.9031C18.2977 13.0347 19.0604 13.9369 19.0604 13.9369C19.0604 13.9369 18.6577 12.8258 18.5821 12.6942C18.5252 12.5973 18.4292 12.5413 18.2986 12.6178ZM16.2124 7.58846C16.3581 7.54757 16.3866 7.4409 16.3581 7.33157C16.319 7.18579 15.8141 6.10046 15.8141 6.10046C15.8141 6.10046 15.9164 7.29334 15.9555 7.43912C15.9848 7.54846 16.0648 7.62757 16.2124 7.58846ZM17.6346 12.8925C17.487 12.9333 17.4568 13.04 17.4861 13.1493C17.5252 13.296 18.0284 14.3653 18.0284 14.3653C18.0284 14.3653 17.927 13.1876 17.8879 13.0418C17.8595 12.9325 17.7804 12.8533 17.6346 12.8925Z" fill="#FFCC4D"/>
<path d="M19.4189 16.5733L19.3861 16.5875L19.3496 16.5929L19.3221 16.5982L19.2714 16.5875L19.2492 16.5786L19.2287 16.5689L19.2047 16.5537L19.1647 16.5253L19.1283 16.496L19.1078 16.4817L19.0821 16.4711L19.0643 16.4666H19.0385L18.9381 16.6755L18.9176 16.7049L18.8981 16.7289L18.8776 16.744L18.8598 16.7591L18.8341 16.7689H18.8101L18.7878 16.7591L18.7567 16.744L18.7478 16.7289L18.7372 16.7137L18.7265 16.6942L18.7158 16.6711L18.7016 16.5973L18.6723 16.6213L18.6447 16.656L18.5896 16.7395L18.5567 16.7831L18.5221 16.8169L18.5034 16.8373L18.4794 16.8524L18.4554 16.8631L18.4261 16.872H18.4118L18.3861 16.8773L18.3621 16.872L18.3434 16.8631L18.2865 16.7946L18.2225 16.7262L18.1789 16.7946L18.1283 16.8524L18.1043 16.8764L18.0821 16.9004L18.0581 16.92L18.0127 16.9449L17.9887 16.9502H17.9647L17.9443 16.9449L17.9247 16.9342L17.9105 16.9191L17.8918 16.896C17.8794 16.8598 17.8661 16.8239 17.8518 16.7884L17.8465 16.7635L17.8376 16.7449L17.8269 16.7351H17.8163L17.6847 16.9502L17.6661 16.9689L17.6314 16.984L17.5549 17.0026H17.5096L17.4749 16.9929L17.4643 16.9875L17.4501 16.9724L17.4465 16.9635V16.944L17.4643 16.7289L17.4501 16.7342L17.4118 16.7529C17.3768 16.7893 17.3428 16.8267 17.3096 16.8649L17.2661 16.9191L17.2118 16.9644L17.1612 17.0026L17.1327 17.0186L17.0741 17.0275L17.0501 17.0222L17.0394 17.0186L17.0296 17.008L17.0243 16.9929V16.9777L17.0296 16.9155L17.0447 16.8169L17.0349 16.7591L17.0145 16.7253L16.9852 16.7689L16.9372 16.832C16.8972 16.8755 16.8563 16.9182 16.8145 16.96C16.7911 16.9755 16.7683 16.9918 16.7461 17.0089L16.6927 17.0275L16.6821 17.0222H16.6669L16.6563 17.0133L16.6527 17.008L16.6421 16.9929L16.6385 16.9777V16.9591L16.6332 16.9342L16.6385 16.7493C16.5496 16.8097 16.4598 16.8684 16.3692 16.9244L16.3354 16.9395L16.2972 16.9591C16.2607 16.968 16.2252 16.9769 16.1896 16.9875H16.1541L16.1212 16.9831L16.0909 16.9724L16.1061 16.9333L16.1354 16.8649L16.1541 16.8364L16.1754 16.8071L16.1941 16.7777L16.2438 16.7289L16.2981 16.6906L16.3603 16.6506L16.4243 16.6213L16.4981 16.5973L16.5709 16.5786L16.7372 16.5493L16.8198 16.5386C17.0652 16.5244 17.3114 16.5226 17.5567 16.5244L17.8261 16.5093L17.9096 16.4995L18.0643 16.4702L18.1389 16.4497L18.2083 16.4213L18.2723 16.392C18.3061 16.3653 18.3407 16.3386 18.3763 16.3137L18.4234 16.2586L18.3727 16.1617L18.4127 16.1564L18.4509 16.1475L18.4909 16.128L18.5238 16.1031L18.5381 16.0942L18.5541 16.0791L18.5647 16.0595L18.5754 16.0453L18.5789 16.0257V15.992L18.5683 15.9724L18.6518 15.9573L18.7407 15.9475L18.8341 15.9422H18.9309C19.0669 15.9475 19.2021 15.9555 19.3372 15.9662C19.5416 15.9911 19.7469 16.0106 19.9523 16.0302L20.1363 16.04V16.1075L20.1327 16.1377L20.1221 16.1662L20.1132 16.1955L20.1025 16.2195L20.0883 16.2391C20.0714 16.2586 20.0527 16.2782 20.0341 16.2969L19.9905 16.3253L19.9434 16.3449L19.8963 16.3555L19.8421 16.3653L19.7381 16.3555L19.6838 16.3404L19.6367 16.3155L19.5861 16.2915L19.5478 16.2569L19.5096 16.2186V16.3022C19.5025 16.3564 19.4936 16.4097 19.4856 16.464L19.4669 16.5146L19.4563 16.5351L19.4421 16.5493L19.4314 16.5644L19.4189 16.5733ZM15.4918 16.1137L15.6029 16.1626C15.6252 16.1441 15.648 16.1263 15.6714 16.1093L15.7149 16.0862L15.7541 16.0613L15.9007 16.0026L16.0269 15.944L16.0909 15.92L16.1994 15.8622L16.2429 15.832C16.3532 15.76 16.4643 15.6889 16.5754 15.6186L16.6723 15.5502L16.7461 15.4915C16.8189 15.4257 16.8901 15.3591 16.9612 15.2915L16.9905 15.272L17.0243 15.2524C17.0647 15.232 17.1056 15.2124 17.1469 15.1937L17.2296 15.1653C17.3949 15.12 17.5629 15.0844 17.7318 15.0577C17.9043 15.0373 18.0767 15.0142 18.2492 14.9946L18.4785 14.9555C18.5354 14.9395 18.5923 14.9253 18.6501 14.912L18.7087 14.8382L18.8029 14.736L18.8669 14.6729L18.9381 14.6133L19.0216 14.5502L19.1185 14.4862L19.2661 14.3991C19.3718 14.3457 19.4767 14.2924 19.5816 14.2373C19.7683 14.1502 19.9523 14.0577 20.1354 13.9635L20.2225 13.9049L20.2465 13.8311L20.2812 13.7591L20.3247 13.6853L20.4376 13.5342C20.4892 13.4791 20.5389 13.424 20.5887 13.3671C20.6492 13.3084 20.7114 13.2515 20.7745 13.1964L20.8687 13.1191L20.9158 13.0844L20.9665 13.0506C21.0021 13.0302 21.0376 13.0106 21.0741 12.992L21.1283 12.9671L21.1807 12.9484L21.2954 12.9182L21.3523 12.9146L21.4065 12.9093L21.4634 12.9146L21.5176 12.9235L21.5141 12.9822L21.4998 13.04L21.4563 13.1626L21.4198 13.2257L21.3763 13.2897L21.3229 13.3573L21.2589 13.4257L21.3096 13.4204L21.3532 13.4106L21.3878 13.4L21.4207 13.3857L21.4847 13.3662L21.5763 13.3564L21.5816 13.3911V13.4249L21.5763 13.4586L21.5674 13.488L21.5532 13.5173L21.5327 13.5466L21.5141 13.5697L21.4901 13.5946C21.4229 13.6594 21.3544 13.7228 21.2847 13.7849L21.3425 13.7902C21.3852 13.8035 21.4278 13.8169 21.4714 13.8284L21.5185 13.8391L21.4616 13.8835C21.4165 13.9137 21.3709 13.943 21.3247 13.9715L21.1683 14.0595L21.0901 14.1084L21.0118 14.1626L20.9389 14.2213L20.9718 14.2257L21.0172 14.2453L21.0367 14.2506L21.0554 14.2604L21.0714 14.2649L21.0856 14.2604L20.9887 14.3146C20.9281 14.3431 20.868 14.3724 20.8083 14.4026L20.7336 14.4471L20.7194 14.4622L20.7105 14.4773L20.6998 14.4915L20.7034 14.5111L20.7141 14.5262L20.7327 14.5404L20.7505 14.5564L20.7434 14.5751L20.7327 14.5911L20.7141 14.6053L20.6963 14.6204L20.6492 14.6435L20.5923 14.6684L20.4812 14.7075L20.4118 14.7422L20.5087 14.8391L20.4741 14.8729L20.4412 14.8977L20.4118 14.9129L20.3772 14.9271L20.3096 14.9369H20.2136L20.2243 14.9813L20.2385 15.0249L20.2589 15.1235C20.1983 15.1706 20.1364 15.216 20.0732 15.2595L19.9603 15.3324L19.8349 15.4053L19.7603 15.44L19.6874 15.4737C19.6051 15.5057 19.5218 15.5351 19.4376 15.5617L19.2483 15.6017L19.1443 15.6169C19.2572 15.6204 19.3701 15.6222 19.4829 15.6213L19.7603 15.592L19.8821 15.568L19.9896 15.5386C20.0607 15.5146 20.1301 15.488 20.1994 15.4604L20.3345 15.3982L20.4678 15.3244L20.5932 15.2453L20.7265 15.168L20.6465 15.1289L20.5701 15.1049L20.5336 15.088C20.5061 15.0746 20.4785 15.0613 20.4501 15.0497L20.4047 15.0249L20.4429 14.9964L20.4901 14.9769L20.5407 14.9582C20.5994 14.944 20.6589 14.9306 20.7176 14.9182C20.7941 14.9102 20.8705 14.9004 20.9469 14.8897L21.0438 14.88L21.1185 14.8613L21.1381 14.8506L21.1523 14.8355L21.1487 14.8302L21.1381 14.8204L21.1238 14.8151L21.1052 14.8062L21.0509 14.7955L20.9816 14.7857L20.9141 14.7804L20.8465 14.7706L20.7861 14.7555L20.7496 14.7404L21.2269 14.6337L21.3105 14.6089C21.3469 14.5955 21.3825 14.5804 21.4181 14.5653L21.4652 14.5351L21.4856 14.5164L21.4803 14.512L21.4714 14.5013L21.4261 14.4915L21.3638 14.4862H21.2892C21.2385 14.4826 21.1887 14.4791 21.1381 14.4773L21.0758 14.4666L21.0358 14.4569L21.1052 14.4284C21.2083 14.3964 21.3132 14.3671 21.4181 14.3395C21.4776 14.3191 21.5381 14.2986 21.5985 14.2809L21.6909 14.2417L21.7345 14.2177L21.7745 14.1937L21.7887 14.1786L21.8038 14.1591L21.8181 14.1449L21.8234 14.1297L21.8181 14.1146L21.8038 14.104L21.7887 14.1004H21.6536L21.5896 14.104H21.5025L21.4767 14.1004L21.4598 14.0897L21.4385 14.08C21.6163 13.9626 21.7958 13.8462 21.9763 13.7324L22.1167 13.6346C22.1546 13.6033 22.1916 13.571 22.2278 13.5377L22.2714 13.4889L22.3114 13.44L22.3407 13.3866L22.3647 13.3333L22.3789 13.2737V13.2106H22.3461L22.3114 13.216L22.2349 13.2444C22.1672 13.287 22.0985 13.3279 22.0287 13.3671L21.9905 13.392L21.9452 13.4106L21.9016 13.4257L21.8616 13.4355L21.8234 13.4409H21.7781L21.7398 13.4257L21.8581 13.3377C21.9532 13.2569 22.0474 13.1751 22.1407 13.0933C22.2439 12.9947 22.3447 12.8937 22.4429 12.7902L22.5834 12.6337C22.6252 12.5786 22.6678 12.5253 22.7114 12.472C22.7461 12.4222 22.7807 12.3715 22.8136 12.3209L22.8243 12.3022L22.8278 12.2871L22.8243 12.2666L22.8189 12.2524L22.8136 12.2364L22.7994 12.2266L22.7843 12.2115L22.7701 12.2062L22.7514 12.1973L22.7301 12.192H22.6918L22.6732 12.1973L22.6474 12.2009L22.6332 12.2169L22.6127 12.232C22.5132 12.3315 22.4145 12.4329 22.3176 12.5351L22.1994 12.6471C22.1218 12.7147 22.0435 12.7817 21.9647 12.848C21.9276 12.8731 21.89 12.8974 21.8518 12.9209L21.7443 12.9751L21.7772 12.9457C21.8127 12.912 21.8474 12.8782 21.8812 12.8435C22.0065 12.6995 22.1265 12.5502 22.2421 12.3991L22.4678 12.0817L22.5283 11.9751L22.5887 11.8773L22.6376 11.7884L22.6758 11.7049L22.6998 11.6373L22.7052 11.6133V11.5742L22.6998 11.5591L22.6821 11.5297L22.6714 11.52L22.6554 11.5155L22.6278 11.4995L22.5914 11.4897H22.5247L22.5061 11.4951L22.4918 11.4995L22.4714 11.5102L22.4572 11.5244L22.4172 11.5591C22.3733 11.6118 22.3309 11.6658 22.2901 11.7209C22.1923 11.8737 22.0892 12.0231 21.9825 12.1697L21.8589 12.3164L21.7967 12.3804L21.7292 12.4391L21.8163 12.2764L21.9532 11.9893L22.0421 11.7795L22.0803 11.672L22.1478 11.4515C22.1647 11.3804 22.1798 11.3093 22.1932 11.2373C22.1994 11.1706 22.2047 11.104 22.2092 11.0364L22.2021 10.9875L22.1985 10.944L22.1932 10.8986L22.1789 10.8417L22.1683 10.8257L22.1443 10.8017L22.1114 10.7875L22.0749 10.7769H22.0421L22.0109 10.7822L22.0021 10.7875L21.9878 10.7911L21.9825 10.8017C21.8945 11.0791 21.8278 11.3617 21.7514 11.6417C21.7229 11.72 21.6945 11.7982 21.6643 11.8764L21.5914 12.0177L21.5461 12.0809L21.5754 11.9404C21.5896 11.8586 21.6021 11.7777 21.6136 11.696L21.6341 11.4951L21.6394 11.4115C21.6367 11.3691 21.6332 11.3267 21.6287 11.2844L21.6198 11.2355L21.6056 11.1964L21.5852 11.1671L21.5745 11.1573L21.5452 11.1475L21.5309 11.1422H21.5149L21.5007 11.1475L21.4607 11.1573L21.4225 11.1769C21.3923 11.328 21.3558 11.4782 21.3149 11.6266C21.2567 11.8139 21.1885 11.9978 21.1105 12.1777C21.0578 12.2883 21.0021 12.3974 20.9434 12.5049L20.8358 12.6906L20.7194 12.8657C20.6413 12.9751 20.5604 13.0824 20.4767 13.1875C20.3949 13.28 20.3114 13.3706 20.2269 13.4613C20.1389 13.5475 20.0492 13.6329 19.9576 13.7164C19.8634 13.7946 19.7683 13.8702 19.6714 13.9449C19.5532 14.0303 19.4323 14.1118 19.3087 14.1893L19.0936 14.3155L18.7514 14.4729L18.3994 14.5991L18.1078 14.688L17.8056 14.7555L17.6545 14.7804L17.3452 14.8195L17.1887 14.8293L17.1736 14.8346L17.1585 14.8391L17.1292 14.8551L17.0963 14.8782C17.058 14.9115 17.0204 14.9456 16.9834 14.9804L16.9052 15.0595L16.6216 15.376L16.5141 15.4835L16.3878 15.5804L16.3381 15.6142L16.2892 15.6444L16.1825 15.6933C16.0172 15.7609 15.8492 15.8222 15.6829 15.8889L15.6394 15.9129L15.6003 15.9333L15.5718 15.952L15.5176 16.0062L15.5025 16.0302L15.4918 16.0542L15.4883 16.0889V16.1137" fill="#FFCC4D"/>
<path d="M17.2811 16.3333L17.3628 16.3439L17.4028 16.359L17.4117 16.3635V16.3688H17.4028L17.3922 16.3733L17.3139 16.3884H17.2517L17.0473 16.3733L16.5291 16.3635C16.3922 16.3653 16.2553 16.3688 16.1184 16.3733C15.9975 16.3822 15.8775 16.3919 15.7566 16.4026L15.6633 16.4177L15.5806 16.4364C15.5611 16.4435 15.5424 16.4506 15.5228 16.4559L15.4979 16.4666L15.4784 16.4817L15.4873 16.4319L15.5086 16.3822L15.4402 16.4017L15.3815 16.431L15.3584 16.4462L15.3379 16.4657L15.3228 16.4888L15.3193 16.5137L15.3051 16.4799L15.2944 16.4497C15.2918 16.4285 15.2882 16.4075 15.2837 16.3866C15.2891 16.3608 15.2944 16.335 15.2979 16.3093L15.3139 16.2844L15.3228 16.2648L15.3433 16.2417L15.3824 16.2026L15.4357 16.1679L15.4962 16.1342C15.528 16.1528 15.5621 16.1674 15.5975 16.1777C15.6325 16.1809 15.6677 16.1775 15.7015 16.1679C15.7557 16.2159 15.8962 16.2062 15.9157 16.119C15.9233 16.0869 15.9233 16.0534 15.9157 16.0213L15.9744 16.0168L16.0428 16.0062L16.1939 15.967L16.2731 15.9519L16.3459 15.9333L16.4144 15.9235L16.4722 15.9182L16.4482 15.9386L16.3211 16.0355L16.2731 16.0693L16.3353 16.0853L16.3895 16.095L16.2739 16.2266L16.2437 16.2657L16.2819 16.2808L16.3211 16.2915L16.3655 16.3013H16.4535L16.5406 16.2817L16.5753 16.2613L16.6153 16.2817L16.6544 16.2968C16.6793 16.3039 16.7051 16.311 16.7308 16.3164C16.7913 16.3226 16.8517 16.3297 16.9131 16.335H17.2811M16.8357 14.8488L16.7922 14.9368L16.7424 15.0497C16.7168 15.0957 16.6928 15.1425 16.6704 15.1902L16.6455 15.215L16.5877 15.1662L16.5237 15.1217L16.4553 15.087L16.3833 15.0586L16.2259 15.0186L16.1486 15.0044C16.064 14.9946 15.9793 14.9866 15.8944 14.9804C15.7819 14.9786 15.6696 14.9733 15.5575 14.9644L15.4011 14.9457L15.3131 14.9306L15.2304 14.9119L15.1433 14.8817L15.0695 14.8435L15.0153 14.8079L14.9033 14.7253C14.7397 14.5715 14.5779 14.4159 14.4099 14.2657L14.3131 14.1982L14.2686 14.1786L14.2224 14.1644L14.1397 14.1457C14.0914 14.1285 14.0428 14.1122 13.9939 14.0968C13.9484 14.0749 13.9025 14.0538 13.8562 14.0337C13.7756 13.9838 13.6975 13.9298 13.6224 13.8719L13.5735 13.8266L13.4766 13.7297L13.3833 13.6275C13.2295 13.4399 13.0846 13.2462 12.9344 13.0559C12.8626 12.9797 12.7894 12.9047 12.7148 12.831L12.6517 12.7733L12.5877 12.7199L12.4473 12.6177L12.4331 12.6222L12.4171 12.6373L12.4019 12.6568C12.3931 12.679 12.3859 12.7022 12.3788 12.7253L12.3735 12.7448L12.3379 12.7288L12.3086 12.7137L12.2731 12.6986L12.2437 12.6888H12.1806L12.1459 12.6986L12.1122 12.7137C12.1388 12.7475 12.1646 12.7813 12.1895 12.8159L12.2331 12.8844L12.3122 13.0355L12.3406 13.1093L12.3513 13.1484L12.3619 13.1777L12.3664 13.2115V13.2399H12.1033L12.1415 13.2986C12.1708 13.3386 12.2019 13.3777 12.2331 13.4159L12.3948 13.5777L12.4491 13.6213L12.4988 13.6559C12.4565 13.6604 12.4142 13.6639 12.3717 13.6666L12.2437 13.6808L12.2873 13.7208C12.3255 13.7475 12.3628 13.775 12.4002 13.8035L12.4633 13.847L12.5273 13.8862L12.5904 13.9208L12.6491 13.9404L12.7033 13.9546L12.7468 13.9644L12.7611 13.9697L12.7717 13.9804L12.7753 13.9848V14.0035L12.7611 14.0435L12.7575 14.0719L12.7513 14.0915V14.1057L12.7575 14.1306L12.7611 14.1502L12.7717 14.159L12.7859 14.1697L12.8046 14.1795L12.8295 14.1848L12.8793 14.2044L12.9033 14.2133L12.9228 14.2284L12.9273 14.2337V14.2435L12.9228 14.2488L12.8837 14.2773L12.8642 14.2968L12.8446 14.3208V14.3413L12.8402 14.3608L12.8499 14.4133L13.0206 14.4719L13.0597 14.4808L13.0988 14.4968L13.1282 14.5119L13.1531 14.527L12.9913 14.6542L13.0348 14.6933L13.0891 14.7226L13.1575 14.7564C13.2064 14.7742 13.2553 14.7902 13.3051 14.8062L13.3779 14.8204L13.4419 14.8355H13.4997L13.4455 14.8746L13.3771 14.9182L13.3042 14.9582L13.2499 14.9973L13.2988 15.031C13.4473 15.1075 13.5993 15.1786 13.7539 15.2417C14.0242 15.3519 14.3006 15.4479 14.5788 15.5342C14.6411 15.5493 14.7024 15.5653 14.7637 15.583L14.8419 15.5982L14.6846 15.583C14.5868 15.5704 14.4893 15.5556 14.3922 15.5386L14.2553 15.5093L13.9859 15.4319L13.8597 15.3875C13.5219 15.2559 13.1922 15.1048 12.8535 14.9768L12.8784 14.9626L12.9468 14.9377L12.9904 14.9279C13.0499 14.9102 13.1077 14.8906 13.1664 14.8693C13.05 14.8516 12.9341 14.8309 12.8188 14.807C12.7591 14.7876 12.6989 14.7696 12.6384 14.7528L12.6037 14.7377L12.5744 14.7226L12.5504 14.7066L12.5344 14.6924V14.6879L12.5397 14.6826L12.5548 14.6773L12.5691 14.6675L12.6082 14.6524L12.7788 14.6026L12.8775 14.5688C12.7362 14.5422 12.5939 14.5182 12.4517 14.4959L12.3833 14.4799L12.3291 14.4613L12.3095 14.4506L12.2908 14.4355L12.2748 14.4266L12.2651 14.4106L12.2802 14.4008L12.3237 14.391C12.3691 14.3839 12.4153 14.3759 12.4606 14.367L12.5388 14.3573C12.5833 14.3448 12.6268 14.3315 12.6704 14.3173L12.6908 14.303L12.7104 14.287L12.6331 14.2577L12.5833 14.2488L12.5344 14.2382L12.3104 14.2088L12.2517 14.1946L12.1975 14.1839L12.0899 14.1457L12.0402 14.1208L12.0002 14.0924L11.9611 14.0577L11.9317 14.0142L11.9424 14.0088L11.9611 14.0035H11.9859L12.0251 14.0088L12.2108 14.0186L12.3193 14.0293H12.4553L12.4935 14.0239L12.5237 14.0142L12.5433 14.0035C12.4513 13.966 12.36 13.9269 12.2695 13.8862C12.2096 13.8558 12.1491 13.8264 12.0882 13.7982L11.9033 13.7013L11.8153 13.647C11.7611 13.6087 11.7074 13.5696 11.6544 13.5297L11.5859 13.471L11.5557 13.4373L11.5255 13.4079L11.5068 13.3786L11.4864 13.3439L11.4668 13.3155L11.4562 13.2817L11.4482 13.2186H11.4811L11.5202 13.223L11.5593 13.239L11.5984 13.2533L11.6757 13.3022L11.7637 13.351L11.8028 13.3759L11.8464 13.399L11.8899 13.4186L11.9291 13.4337L11.9726 13.4444L12.0117 13.4488H12.0562L12.0944 13.4337L11.9788 13.3448C11.8831 13.2654 11.7886 13.1845 11.6953 13.1022C11.5406 12.9549 11.392 12.8012 11.2499 12.6417L11.1877 12.559L11.1237 12.4808C11.0886 12.4306 11.0543 12.38 11.0206 12.3288L11.0117 12.3093V12.2755L11.0162 12.2604L11.0206 12.2462L11.0357 12.2364L11.0499 12.2213L11.0659 12.2106L11.0846 12.2053L11.1042 12.2017H11.1433L11.1673 12.2053L11.1886 12.2106L11.2073 12.2257C11.3131 12.3306 11.4171 12.4364 11.5193 12.5439C11.6322 12.6524 11.7495 12.7573 11.8713 12.8568L11.9833 12.9288L12.0411 12.959L12.0953 12.9777L12.0571 12.9537L11.9548 12.8515C11.8295 12.7075 11.7104 12.5582 11.5931 12.407C11.5414 12.3361 11.4907 12.2644 11.4411 12.1919C11.3968 12.1211 11.3511 12.0512 11.3042 11.9822C11.2669 11.921 11.2311 11.8591 11.1966 11.7964C11.1768 11.7456 11.156 11.6953 11.1344 11.6453L11.1282 11.6213V11.5813L11.1344 11.567L11.1531 11.5377L11.1637 11.527L11.1788 11.5182L11.2419 11.4977H11.3104L11.3299 11.5022L11.3442 11.5075L11.3637 11.5182L11.4179 11.567L11.5451 11.7288C11.6446 11.8817 11.7495 12.031 11.8579 12.1777L11.9735 12.3244L12.0375 12.3875L12.1059 12.4462C12.0281 12.2984 11.9534 12.1491 11.8819 11.9982C11.8517 11.9286 11.8224 11.8587 11.7939 11.7884L11.7548 11.6808C11.7342 11.6067 11.7113 11.5332 11.6864 11.4604L11.6624 11.3528L11.6446 11.2435L11.6339 11.1413L11.6295 11.0444L11.6339 10.9955L11.6402 10.951L11.6446 10.9066L11.6544 10.863L11.6642 10.847L11.6695 10.8328L11.6837 10.8168L11.6935 10.8079L11.7273 10.7928L11.7619 10.7839H11.7957L11.8251 10.7893L11.8393 10.7928L11.8499 10.7982L11.8553 10.8088L11.8606 10.823C11.9442 11.0959 12.0126 11.3733 12.0846 11.6497C12.1131 11.727 12.1424 11.8035 12.1735 11.879L12.2073 11.9519L12.2464 12.0204L12.2899 12.0888L12.2615 11.9466C12.2503 11.8654 12.2373 11.7845 12.2224 11.7039C12.2126 11.6096 12.2046 11.515 12.1984 11.4204L12.2082 11.2933L12.2179 11.2435L12.2331 11.2053L12.2526 11.1759L12.2624 11.1653L12.2766 11.1555L12.2908 11.151H12.3353L12.3753 11.1653L12.4135 11.1848L12.4819 11.4924C12.5068 11.5857 12.5344 11.679 12.5646 11.7706C12.6144 11.9102 12.6686 12.0488 12.7264 12.1857L12.7948 12.327L12.8926 12.5137L12.9993 12.6986L13.1175 12.8746L13.2437 13.0497L13.3619 13.1964C13.4437 13.2888 13.5264 13.3804 13.6108 13.4702C13.6988 13.5564 13.7886 13.6408 13.8802 13.7235L14.0215 13.8417C14.1513 13.943 14.2846 14.039 14.4224 14.1297C14.5299 14.1937 14.6393 14.2559 14.7495 14.3155L15.0855 14.4773C15.2562 14.5448 15.4286 14.607 15.6028 14.6622C15.7735 14.7075 15.9468 14.7466 16.1211 14.7795C16.3548 14.8168 16.5948 14.839 16.8357 14.8488Z" fill="#FFCC4D"/>
<path d="M3.07261 20.9084C3.07261 20.9084 2.86194 21.0835 2.79083 20.9955C2.67616 20.8533 3.14372 20.1431 3.14372 19.8924C3.14372 19.4827 2.86905 19.3689 2.53128 19.3111C2.30372 19.272 1.93483 19.328 1.93483 19.328C2.00416 19.4213 2.0495 19.4507 2.16683 19.456C2.08599 19.4985 2.01856 19.5627 1.9721 19.6413C1.92563 19.72 1.90196 19.81 1.90372 19.9013C1.90372 20.2533 2.0495 20.3991 2.0495 20.7982C2.0495 21.0195 1.86816 21.3004 1.86816 21.3004C2.18816 21.2684 2.34816 20.9724 2.2575 20.7342C2.28199 20.7296 2.30723 20.731 2.33106 20.7383C2.3549 20.7456 2.37662 20.7585 2.39439 20.776C2.4175 20.7111 2.38105 20.6338 2.33128 20.5689C2.37128 20.5484 2.40061 20.5609 2.46372 20.5733C2.4575 20.5058 2.41661 20.4347 2.31794 20.3671C2.60594 20.4409 2.78283 20.2409 2.78283 20.0311C2.78283 19.8711 2.67172 19.7573 2.56239 19.7573C2.52098 19.7586 2.48072 19.7712 2.44594 19.7938C2.4255 19.7511 2.43616 19.6924 2.45661 19.6489C2.3775 19.6693 2.32683 19.7164 2.36328 19.816C2.33616 19.8164 2.30944 19.8225 2.2848 19.8338C2.26017 19.8452 2.23815 19.8615 2.22016 19.8818C2.23717 19.9031 2.25904 19.92 2.28394 19.9312C2.30884 19.9423 2.33604 19.9473 2.36328 19.9458C2.31883 20.0382 2.36861 20.0907 2.44061 20.1315C2.44061 20.1315 2.39439 19.9458 2.51261 19.9458C2.56594 19.9458 2.61394 19.9644 2.61394 20.0418C2.61394 20.1084 2.55439 20.2027 2.4175 20.1973C2.27972 20.1911 2.16861 20.1022 2.16861 19.8844C2.16861 19.6809 2.33128 19.5804 2.5455 19.5742C2.73928 19.568 2.88505 19.6729 2.88505 19.8729C2.88505 20.1378 2.50105 20.744 2.50105 20.9804C2.50105 21.1582 2.66016 21.2569 2.81661 21.2569C3.01928 21.2569 3.18994 21.056 3.18994 21.056L3.07261 20.9084ZM3.02816 16.1067C3.02816 15.664 3.42639 15.4355 3.73927 15.4355C4.16061 15.4355 4.3855 15.688 4.3855 16.0169C4.3855 16.2053 4.35083 16.3227 4.26461 16.5013L3.29839 18.5075C3.26302 18.5918 3.24751 18.683 3.25305 18.7742C3.25305 18.9538 3.42816 19.1013 3.61128 19.1058C3.7775 19.1102 3.95972 18.9502 3.95972 18.768C3.95972 18.5467 3.84594 18.4489 3.72772 18.4489C3.58283 18.4489 3.52505 18.5075 3.52505 18.6098C3.52505 18.6818 3.55972 18.712 3.60861 18.712C3.73305 18.712 3.69839 18.5449 3.69839 18.5449C3.71495 18.5483 3.73055 18.5554 3.74409 18.5655C3.75762 18.5757 3.76877 18.5886 3.77674 18.6036C3.78471 18.6185 3.78931 18.635 3.79021 18.6519C3.7911 18.6688 3.78828 18.6856 3.78194 18.7013C3.82849 18.7111 3.87061 18.7358 3.90194 18.7715C3.86993 18.8056 3.82791 18.8287 3.78194 18.8373C3.81128 18.9333 3.77216 18.9804 3.68861 19.0009C3.70301 18.9685 3.70705 18.9325 3.70016 18.8978C3.56772 18.9351 3.36505 18.8764 3.36505 18.6471C3.36505 18.4195 3.52239 18.2284 3.81839 18.2755C3.74728 18.2435 3.71261 18.1751 3.7055 18.0969C3.75883 18.1191 3.81839 18.1218 3.81839 18.1218C3.78372 18.0613 3.73572 18.0089 3.7375 17.888C3.79261 17.9138 3.84327 17.9591 3.9135 17.9298C3.80327 17.7138 3.93839 17.4169 4.28327 17.3449C4.1662 17.4722 4.09952 17.6378 4.09572 17.8107C4.09572 18.3262 4.23972 18.4115 4.23972 18.7689C4.23733 18.8522 4.21532 18.9338 4.17547 19.007C4.13562 19.0802 4.07906 19.143 4.01039 19.1902V19.184C4.10994 19.2107 4.17483 19.2613 4.21216 19.328C3.98194 19.3929 3.64683 19.392 3.46816 19.3218C3.38718 19.31 3.30982 19.2804 3.24171 19.2351C3.17359 19.1897 3.11644 19.1297 3.07439 19.0595C3.03094 18.9594 3.00852 18.8514 3.00852 18.7422C3.00852 18.633 3.03094 18.525 3.07439 18.4249C3.21128 18.1395 3.85661 16.7715 4.0575 16.3404C4.10181 16.249 4.12519 16.1487 4.12594 16.0471C4.12594 15.7849 3.88505 15.6924 3.74816 15.6924C3.58372 15.6924 3.41661 15.8187 3.41661 15.9733C3.41661 16.0729 3.47083 16.1315 3.54728 16.1315C3.73305 16.1315 3.7215 15.9742 3.68416 15.8747C3.79883 15.928 3.86639 16.0187 3.84772 16.1164C3.9135 16.1253 3.97572 16.1564 4.03261 16.2204C3.98728 16.2791 3.93216 16.3218 3.84772 16.3227C3.88505 16.4738 3.78372 16.5378 3.68416 16.5724C3.71528 16.4622 3.73572 16.3333 3.54728 16.3333C3.4095 16.3333 3.30105 16.3093 3.23794 16.2195C3.2335 16.3395 3.22194 16.8107 3.22194 16.8107C3.21483 16.9884 3.45928 16.9831 3.61483 16.9307C3.55527 17.1351 3.43528 17.2462 3.15528 17.2178C3.19816 17.2343 3.23478 17.2638 3.25998 17.3023C3.28517 17.3407 3.29767 17.3861 3.29572 17.432C3.29572 17.5991 3.16061 17.7831 3.07261 17.8382L3.02816 16.1067Z" fill="#FFCC4D"/>
<path d="M3.11612 16.1066C3.11612 15.664 2.7179 15.4355 2.40501 15.4355C1.98368 15.4355 1.75879 15.688 1.75879 16.0169C1.75879 16.2053 1.79346 16.3226 1.87968 16.5013L2.8459 18.5075C2.88096 18.5918 2.89617 18.6831 2.89034 18.7742C2.89034 18.9538 2.71523 19.1013 2.53301 19.1058C2.3659 19.1102 2.18457 18.9502 2.18457 18.768C2.18457 18.5466 2.29834 18.4489 2.41657 18.4489C2.56146 18.4489 2.61923 18.5075 2.61923 18.6098C2.61923 18.6818 2.58457 18.712 2.53568 18.712C2.41123 18.712 2.4459 18.5449 2.4459 18.5449C2.42934 18.5483 2.41374 18.5554 2.4002 18.5655C2.38666 18.5756 2.37551 18.5886 2.36754 18.6035C2.35958 18.6185 2.35498 18.635 2.35408 18.6518C2.35318 18.6687 2.356 18.6856 2.36234 18.7013C2.31579 18.7111 2.27368 18.7357 2.24234 18.7715C2.27435 18.8056 2.31638 18.8287 2.36234 18.8373C2.3339 18.9333 2.37301 18.9804 2.45657 19C2.44216 18.9676 2.43813 18.9316 2.44501 18.8969C2.57746 18.9342 2.78012 18.8755 2.78012 18.6462C2.78012 18.4186 2.62279 18.2275 2.32768 18.2746C2.3979 18.2426 2.43346 18.1742 2.43968 18.096C2.40384 18.1099 2.36606 18.1183 2.32768 18.1209C2.36146 18.0604 2.40946 18.008 2.40768 17.8871C2.35257 17.9129 2.30279 17.9582 2.23168 17.9289C2.3419 17.7129 2.20679 17.416 1.8619 17.344C1.97898 17.4713 2.04566 17.6368 2.04946 17.8098C2.04946 18.3253 1.90634 18.4106 1.90634 18.768C1.90634 18.9173 1.98368 19.08 2.13568 19.1893V19.1831C2.09384 19.1916 2.05425 19.2088 2.01949 19.2337C1.98473 19.2585 1.95557 19.2903 1.9339 19.3271C2.16412 19.392 2.49834 19.3911 2.6779 19.3209C2.75889 19.3091 2.83625 19.2795 2.90436 19.2342C2.97247 19.1888 3.02963 19.1288 3.07168 19.0586C3.11513 18.9585 3.13755 18.8505 3.13755 18.7413C3.13755 18.6321 3.11513 18.5241 3.07168 18.424C2.93479 18.1386 2.28946 16.7706 2.08857 16.3395C2.04425 16.248 2.02087 16.1478 2.02012 16.0462C2.02012 15.784 2.26101 15.6915 2.3979 15.6915C2.56234 15.6915 2.72946 15.8178 2.72946 15.9724C2.72946 16.072 2.67523 16.1306 2.59879 16.1306C2.41301 16.1306 2.42457 15.9733 2.46101 15.8738C2.34634 15.9271 2.27879 16.0178 2.29746 16.1155C2.2252 16.1265 2.15945 16.1635 2.11257 16.2195C2.1579 16.2782 2.21301 16.3209 2.29746 16.3218C2.26012 16.4729 2.36146 16.5369 2.46101 16.5715C2.4299 16.4613 2.40946 16.3324 2.59879 16.3324C2.73657 16.3324 2.84501 16.3084 2.90812 16.2186L2.92412 16.8098C2.93123 16.9875 2.6859 16.9822 2.53034 16.9298C2.58901 17.1333 2.7099 17.2444 2.98901 17.216C2.94613 17.2325 2.90951 17.262 2.88431 17.3005C2.85911 17.3389 2.84661 17.3843 2.84857 17.4302C2.84857 17.5973 2.98279 17.7813 3.07168 17.8364L3.11612 16.1066ZM3.07257 20.9084C3.07257 20.9084 3.28323 21.0835 3.35434 20.9955C3.46901 20.8533 3.00146 20.1431 3.00146 19.8924C3.00146 19.4826 3.27612 19.3689 3.6139 19.3111C3.84146 19.272 4.21123 19.328 4.21123 19.328C4.14101 19.4213 4.09657 19.4506 3.97923 19.456C4.06001 19.4986 4.12738 19.5628 4.17383 19.6414C4.22029 19.72 4.244 19.81 4.24234 19.9013C4.24234 20.2533 4.09657 20.3991 4.09657 20.7982C4.09657 21.0195 4.2779 21.3004 4.2779 21.3004C3.9579 21.2684 3.7979 20.9724 3.88857 20.7342C3.86407 20.7298 3.83887 20.7312 3.81506 20.7385C3.79126 20.7458 3.76953 20.7586 3.75168 20.776C3.72857 20.7111 3.7659 20.6338 3.81479 20.5689C3.77479 20.5484 3.74546 20.5609 3.68234 20.5733C3.68857 20.5058 3.72857 20.4346 3.82812 20.3671C3.54012 20.4409 3.36323 20.2409 3.36323 20.0311C3.36323 19.8711 3.47434 19.7573 3.58368 19.7573C3.61923 19.7573 3.67079 19.7724 3.70012 19.7938C3.72057 19.7511 3.7099 19.6924 3.68857 19.6489C3.76857 19.6693 3.81834 19.7164 3.78279 19.816C3.80989 19.8165 3.8366 19.8226 3.86123 19.8339C3.88585 19.8452 3.90787 19.8615 3.9259 19.8818C3.9089 19.9031 3.88703 19.92 3.86213 19.9312C3.83723 19.9423 3.81002 19.9473 3.78279 19.9458C3.82723 20.0382 3.77746 20.0906 3.70546 20.1315C3.70546 20.1315 3.75168 19.9458 3.63346 19.9458C3.58012 19.9458 3.53212 19.9644 3.53212 20.0418C3.53212 20.1084 3.59168 20.2026 3.72857 20.1973C3.86546 20.1911 3.97657 20.1022 3.97657 19.8844C3.97657 19.6809 3.8139 19.5804 3.59968 19.5742C3.4059 19.568 3.26012 19.6729 3.26012 19.8729C3.26012 20.1378 3.64412 20.744 3.64412 20.9804C3.64412 21.1582 3.48501 21.2569 3.32857 21.2569C3.1259 21.2569 2.95523 21.056 2.95523 21.056L3.07257 20.9084ZM3.02812 8.33509C3.02812 7.89064 3.42634 7.66309 3.73923 7.66309C4.16057 7.66309 4.38546 7.91553 4.38546 8.24531C4.38546 8.43286 4.35079 8.5502 4.26457 8.72886L3.29834 10.736C3.26293 10.8199 3.24741 10.9108 3.25301 11.0018C3.25301 11.1822 3.42812 11.3289 3.61123 11.3342C3.77746 11.3378 3.95968 11.1778 3.95968 10.9964C3.95968 10.776 3.8459 10.6773 3.72768 10.6773C3.58279 10.6773 3.52501 10.7369 3.52501 10.8391C3.52501 10.9093 3.55968 10.9404 3.60857 10.9404C3.73301 10.9404 3.69834 10.7733 3.69834 10.7733C3.71476 10.7767 3.73024 10.7836 3.7437 10.7936C3.75715 10.8036 3.76825 10.8164 3.77622 10.8311C3.78419 10.8459 3.78882 10.8622 3.7898 10.8789C3.79078 10.8957 3.78809 10.9124 3.7819 10.928C3.8285 10.9382 3.87057 10.9631 3.9019 10.9991C3.86975 11.0332 3.82783 11.0565 3.7819 11.0658C3.81123 11.1618 3.77212 11.208 3.68857 11.2284C3.70303 11.1961 3.70706 11.16 3.70012 11.1253C3.56768 11.1626 3.36501 11.104 3.36501 10.8746C3.36501 10.648 3.52234 10.4569 3.81834 10.504C3.74723 10.4702 3.71257 10.4018 3.70546 10.3253C3.75879 10.3466 3.81834 10.3484 3.81834 10.3484C3.78368 10.288 3.73568 10.2355 3.73746 10.1155C3.79257 10.1404 3.84323 10.1866 3.91346 10.1573C3.80323 9.94042 3.93834 9.64264 4.28323 9.57242C4.16644 9.69988 4.0998 9.86536 4.09568 10.0382C4.09568 10.5529 4.23968 10.6391 4.23968 10.9973C4.23968 11.1466 4.16234 11.3084 4.01034 11.4186V11.4124C4.10812 11.4391 4.17212 11.488 4.21034 11.5555C3.98012 11.6213 3.64501 11.6195 3.46634 11.5493C3.38542 11.5374 3.30813 11.5077 3.24004 11.4624C3.17196 11.417 3.11476 11.3572 3.07257 11.2871C3.02911 11.1872 3.00668 11.0795 3.00668 10.9706C3.00668 10.8618 3.02911 10.754 3.07257 10.6542C3.20946 10.368 3.85479 8.99997 4.05568 8.56886C4.09952 8.47722 4.12288 8.37712 4.12412 8.27553C4.12412 8.01242 3.88323 7.91997 3.74634 7.91997C3.5819 7.91997 3.41479 8.04531 3.41479 8.19997C3.41479 8.29953 3.46901 8.35909 3.54546 8.35909C3.73123 8.35909 3.71968 8.20086 3.68234 8.1022C3.79701 8.15375 3.86457 8.2462 3.8459 8.34397C3.91168 8.35286 3.9739 8.38309 4.03079 8.44886C3.98546 8.50575 3.93034 8.54842 3.8459 8.5502C3.88323 8.7022 3.7819 8.7662 3.68234 8.80086C3.71346 8.69064 3.7339 8.56264 3.54546 8.56264C3.40768 8.56264 3.29923 8.53864 3.23612 8.44975C3.23168 8.56886 3.22012 9.04086 3.22012 9.04086C3.21301 9.21775 3.45746 9.21331 3.61301 9.15997C3.55523 9.36442 3.43523 9.47464 3.15523 9.4462C3.19819 9.46288 3.23484 9.4926 3.26003 9.53118C3.28522 9.56976 3.29769 9.61527 3.29568 9.66131C3.29568 9.82753 3.16057 10.0124 3.07257 10.0666L3.02812 8.33509Z" fill="#FFCC4D"/>
<path d="M3.11612 8.33509C3.11612 7.89064 2.7179 7.66309 2.40501 7.66309C1.98368 7.66309 1.75879 7.91553 1.75879 8.24531C1.75879 8.43286 1.79346 8.5502 1.87968 8.72886L2.8459 10.736C2.87968 10.8062 2.89034 10.8853 2.89034 11.0018C2.89034 11.1822 2.71523 11.3289 2.53301 11.3342C2.3659 11.3378 2.18457 11.1778 2.18457 10.9964C2.18457 10.776 2.29834 10.6773 2.41657 10.6773C2.56146 10.6773 2.61923 10.7369 2.61923 10.8391C2.61923 10.9093 2.58457 10.9404 2.53568 10.9404C2.41123 10.9404 2.4459 10.7733 2.4459 10.7733C2.4294 10.7765 2.41382 10.7834 2.40028 10.7933C2.38674 10.8033 2.37557 10.8161 2.36758 10.8309C2.35959 10.8457 2.35498 10.8621 2.35407 10.8788C2.35317 10.8956 2.35599 10.9124 2.36234 10.928C2.31575 10.9382 2.27368 10.9631 2.24234 10.9991C2.27449 11.0332 2.31642 11.0565 2.36234 11.0658C2.3339 11.1618 2.37212 11.208 2.45568 11.2284C2.44122 11.1961 2.43718 11.16 2.44412 11.1253C2.57657 11.1626 2.77923 11.104 2.77923 10.8746C2.77923 10.648 2.6219 10.4569 2.32679 10.504C2.39701 10.4702 2.43257 10.4018 2.43879 10.3253C2.38546 10.3466 2.32679 10.3484 2.32679 10.3484C2.36057 10.288 2.40857 10.2355 2.40679 10.1155C2.35168 10.1404 2.3019 10.1866 2.23079 10.1573C2.34101 9.94042 2.2059 9.64264 1.86101 9.57242C1.97781 9.69988 2.04444 9.86536 2.04857 10.0382C2.04857 10.5529 1.90546 10.6391 1.90546 10.9973C1.90546 11.1466 1.98279 11.3084 2.13479 11.4186V11.4124C2.03612 11.4391 1.97123 11.488 1.93479 11.5555C2.16501 11.6213 2.49923 11.6195 2.67879 11.5493C2.75972 11.5374 2.837 11.5077 2.90509 11.4624C2.97318 11.417 3.03037 11.3572 3.07257 11.2871C3.11602 11.1872 3.13845 11.0795 3.13845 10.9706C3.13845 10.8618 3.11602 10.754 3.07257 10.6542C2.93568 10.368 2.29034 8.99997 2.08946 8.56886C2.04521 8.47767 2.02183 8.37777 2.02101 8.27642C2.02101 8.01331 2.2619 7.92086 2.39879 7.92086C2.56323 7.92086 2.73034 8.0462 2.73034 8.20086C2.73034 8.30042 2.67612 8.35997 2.59968 8.35997C2.4139 8.35997 2.42546 8.20175 2.4619 8.10309C2.34723 8.15464 2.27968 8.24709 2.29834 8.34486C2.22577 8.35548 2.1598 8.3929 2.11346 8.44975C2.15879 8.50664 2.2139 8.54931 2.29834 8.55109C2.26101 8.70309 2.36234 8.76709 2.4619 8.80175C2.43079 8.69153 2.41034 8.56353 2.59968 8.56353C2.73746 8.56353 2.8459 8.53953 2.90901 8.45064L2.92412 9.03997C2.93123 9.21686 2.6859 9.21242 2.53034 9.15909C2.58901 9.36353 2.7099 9.47375 2.98901 9.4462C2.94606 9.46288 2.90941 9.4926 2.88422 9.53118C2.85902 9.56976 2.84656 9.61527 2.84857 9.66131C2.84857 9.82753 2.98279 10.0124 3.07168 10.0666L3.11612 8.33509Z" fill="#FFCC4D"/>
<path d="M3.1162 7.00353C3.1162 7.44708 2.71798 7.67553 2.40509 7.67553C1.98376 7.67553 1.75887 7.42308 1.75887 7.09242C1.75887 6.90575 1.79354 6.78842 1.87976 6.60886L2.84598 4.60175C2.88103 4.51775 2.89624 4.4268 2.89042 4.33597C2.89042 4.15642 2.71531 4.00886 2.53309 4.00442C2.36598 4.00086 2.18465 4.15997 2.18465 4.3422C2.18465 4.56353 2.29842 4.66131 2.41665 4.66131C2.56154 4.66131 2.61931 4.60175 2.61931 4.49953C2.61931 4.42842 2.58465 4.3982 2.53576 4.3982C2.41131 4.3982 2.44598 4.56531 2.44598 4.56531C2.42945 4.56197 2.41386 4.55503 2.40032 4.54498C2.38678 4.53493 2.37562 4.52202 2.36764 4.50717C2.35966 4.49231 2.35506 4.47588 2.35416 4.45904C2.35326 4.4422 2.35608 4.42537 2.36242 4.40975C2.31563 4.4006 2.27332 4.37584 2.24242 4.33953C2.27487 4.30599 2.3167 4.28306 2.36242 4.27375C2.33398 4.17775 2.37309 4.13153 2.45665 4.11108C2.44219 4.14342 2.43815 4.17946 2.44509 4.2142C2.57754 4.17686 2.7802 4.23731 2.7802 4.46486C2.7802 4.69153 2.62287 4.88264 2.32776 4.83553C2.39798 4.86931 2.43354 4.93775 2.43976 5.0142C2.40369 5.00128 2.36599 4.9935 2.32776 4.99108C2.36154 5.05153 2.40954 5.10397 2.40776 5.22397C2.35265 5.19908 2.30287 5.15286 2.23176 5.1822C2.34198 5.39908 2.20687 5.69686 1.86198 5.76797C1.97877 5.64015 2.04539 5.4744 2.04954 5.30131C2.04954 4.78753 1.90642 4.70042 1.90642 4.34308C1.90642 4.19375 1.98376 4.03197 2.13576 3.92175V3.92797C2.09402 3.91917 2.05458 3.90173 2.01999 3.87678C1.98539 3.85183 1.9564 3.81991 1.93487 3.78308C2.16509 3.7182 2.49931 3.71908 2.67887 3.7902C2.75993 3.80203 2.83734 3.83178 2.90546 3.8773C2.97358 3.92281 3.03069 3.98294 3.07265 4.05331C3.11616 4.15313 3.13861 4.26086 3.13861 4.36975C3.13861 4.47865 3.11616 4.58637 3.07265 4.6862C2.93576 4.97242 2.29042 6.34042 2.08954 6.77064C2.04521 6.8618 2.02182 6.96172 2.02109 7.06308C2.02109 7.32708 2.26198 7.41864 2.39887 7.41864C2.56331 7.41864 2.73042 7.29331 2.73042 7.13775C2.73042 7.03908 2.6762 6.97864 2.59976 6.97864C2.41398 6.97864 2.42554 7.13597 2.46198 7.23553C2.34731 7.18397 2.27976 7.09153 2.29842 6.99375C2.22596 6.98281 2.16011 6.94545 2.11354 6.88886C2.15887 6.83197 2.21398 6.78842 2.29842 6.78753C2.26109 6.63642 2.36242 6.57153 2.46198 6.53597C2.43087 6.64708 2.41042 6.77597 2.59976 6.77597C2.73754 6.77597 2.84598 6.79908 2.90909 6.88886L2.92509 6.29686C2.9322 6.11997 2.68687 6.12531 2.53131 6.17775C2.58998 5.97331 2.71087 5.86308 2.98998 5.89064C2.94702 5.87396 2.91038 5.84424 2.88518 5.80566C2.85999 5.76707 2.84753 5.72156 2.84954 5.67553C2.84954 5.50931 2.98376 5.32442 3.07265 5.2702L3.1162 7.00353ZM3.1162 14.776C3.1162 15.2195 2.71798 15.4471 2.40509 15.4471C1.98376 15.4471 1.75887 15.1955 1.75887 14.8658C1.75672 14.6968 1.79836 14.5302 1.87976 14.3822L2.84598 12.3751C2.88103 12.2911 2.89624 12.2001 2.89042 12.1093C2.89042 11.9289 2.71531 11.7822 2.53309 11.7778C2.36598 11.7733 2.18465 11.9333 2.18465 12.1146C2.18465 12.3351 2.29842 12.4338 2.41665 12.4338C2.56154 12.4338 2.61931 12.3742 2.61931 12.272C2.61931 12.2018 2.58465 12.1715 2.53576 12.1715C2.41131 12.1715 2.44598 12.3386 2.44598 12.3386C2.42953 12.3352 2.41404 12.3281 2.40058 12.3181C2.38713 12.308 2.37604 12.2951 2.36808 12.2803C2.36013 12.2655 2.3555 12.2491 2.35452 12.2323C2.35354 12.2155 2.35624 12.1987 2.36242 12.1831C2.31554 12.1736 2.27323 12.1486 2.24242 12.112C2.27466 12.0782 2.31658 12.0552 2.36242 12.0462C2.33398 11.9493 2.3722 11.9031 2.45576 11.8826C2.4413 11.915 2.43726 11.951 2.4442 11.9858C2.57665 11.9484 2.77931 12.008 2.77931 12.2364C2.77931 12.4631 2.62198 12.6533 2.32687 12.6071C2.39709 12.6418 2.43265 12.7093 2.43887 12.7866C2.38554 12.7662 2.32687 12.7626 2.32687 12.7626C2.36065 12.8231 2.40865 12.8764 2.40687 12.9955C2.35176 12.9706 2.30198 12.9244 2.23087 12.9538C2.34109 13.1698 2.20598 13.4693 1.86109 13.5386C1.97803 13.4113 2.04468 13.2457 2.04865 13.0729C2.04865 12.56 1.90554 12.472 1.90554 12.1146C1.90554 11.9644 1.98287 11.8026 2.13487 11.6933V11.6986C2.0362 11.6729 1.97131 11.624 1.93487 11.5555C2.16509 11.4906 2.49931 11.4915 2.67887 11.5626C2.7598 11.5746 2.83708 11.6042 2.90517 11.6496C2.97325 11.6949 3.03045 11.7548 3.07265 11.8249C3.1161 11.9247 3.13853 12.0324 3.13853 12.1413C3.13853 12.2502 3.1161 12.3579 3.07265 12.4578C2.93576 12.744 2.29042 14.112 2.08954 14.5431C2.04509 14.6342 2.0217 14.7342 2.02109 14.8355C2.02109 15.0986 2.26198 15.1902 2.39887 15.1902C2.56331 15.1902 2.73042 15.0649 2.73042 14.9093C2.73042 14.8124 2.6762 14.752 2.59976 14.752C2.41398 14.752 2.42554 14.9093 2.46198 15.008C2.34731 14.9564 2.27976 14.8631 2.29842 14.7662C2.22589 14.7561 2.15986 14.7189 2.11354 14.6622C2.13461 14.6323 2.1622 14.6075 2.19422 14.5898C2.22625 14.5721 2.26188 14.5619 2.29842 14.56C2.26109 14.4089 2.36242 14.3458 2.46198 14.3102C2.43087 14.4213 2.41042 14.5493 2.59976 14.5493C2.73754 14.5493 2.84598 14.5724 2.90909 14.6631L2.92509 14.0711C2.9322 13.8951 2.68687 13.8995 2.53131 13.952C2.58998 13.7484 2.71087 13.6382 2.98998 13.6658C2.94702 13.6491 2.91038 13.6194 2.88518 13.5808C2.85999 13.5422 2.84753 13.4967 2.84954 13.4506C2.84954 13.2844 2.98376 13.1004 3.07265 13.0453L3.1162 14.776Z" fill="#FFCC4D"/>
<path d="M3.02886 14.7759C3.02886 15.2194 3.42708 15.447 3.73997 15.447C4.1613 15.447 4.38619 15.1954 4.38619 14.8657C4.38834 14.6967 4.34669 14.5301 4.2653 14.3821L3.29908 12.375C3.26366 12.2911 3.24815 12.2001 3.25374 12.1092C3.25374 11.9288 3.42886 11.7821 3.61197 11.7777C3.77819 11.7732 3.96041 11.9332 3.96041 12.1145C3.96041 12.335 3.84663 12.4337 3.72841 12.4337C3.58352 12.4337 3.52574 12.3741 3.52574 12.2719C3.52574 12.2017 3.56041 12.1714 3.6093 12.1714C3.73374 12.1714 3.69908 12.3385 3.69908 12.3385C3.71553 12.3351 3.73102 12.328 3.74447 12.318C3.75793 12.3079 3.76902 12.295 3.77698 12.2802C3.78493 12.2654 3.78956 12.249 3.79054 12.2322C3.79151 12.2154 3.78882 12.1986 3.78263 12.183C3.82952 12.1735 3.87182 12.1485 3.90263 12.1119C3.8704 12.0781 3.82848 12.0551 3.78263 12.0461C3.81197 11.9492 3.77286 11.903 3.6893 11.8825C3.70619 11.9199 3.70619 11.9537 3.70086 11.9857C3.56841 11.9483 3.36574 12.0079 3.36574 12.2363C3.36574 12.463 3.52308 12.6532 3.81908 12.607C3.74797 12.6417 3.7133 12.7092 3.70619 12.7865C3.75952 12.7661 3.81908 12.7625 3.81908 12.7625C3.78441 12.823 3.73641 12.8763 3.73819 12.9954C3.7933 12.9705 3.84397 12.9243 3.91419 12.9537C3.80397 13.1697 3.93908 13.4692 4.28397 13.5385C4.16703 13.4112 4.10037 13.2456 4.09641 13.0728C4.09641 12.5599 4.24041 12.4719 4.24041 12.1145C4.23817 12.0312 4.21622 11.9496 4.17636 11.8763C4.13649 11.8031 4.07986 11.7403 4.01108 11.6932V11.6985C4.05296 11.6901 4.09259 11.6729 4.12736 11.6481C4.16213 11.6233 4.19127 11.5914 4.21286 11.5545C3.98263 11.4897 3.64752 11.4905 3.46886 11.5617C3.38793 11.5736 3.31064 11.6033 3.24256 11.6486C3.17447 11.6939 3.11727 11.7538 3.07508 11.8239C3.03162 11.9237 3.00919 12.0314 3.00919 12.1403C3.00919 12.2492 3.03162 12.3569 3.07508 12.4568C3.21197 12.743 3.8573 14.111 4.05819 14.5421C4.10086 14.6328 4.12663 14.7288 4.12663 14.8345C4.12663 15.0977 3.88574 15.1892 3.74886 15.1892C3.58441 15.1892 3.4173 15.0639 3.4173 14.9083C3.4173 14.8114 3.47152 14.751 3.54797 14.751C3.73374 14.751 3.72219 14.9083 3.68486 15.007C3.79952 14.9554 3.86708 14.8621 3.84841 14.7652C3.92106 14.7554 3.98721 14.7182 4.0333 14.6612C4.01223 14.6313 3.98464 14.6065 3.95261 14.5888C3.92059 14.5711 3.88496 14.5609 3.84841 14.559C3.88574 14.4079 3.78441 14.3448 3.68486 14.3092C3.71597 14.4203 3.73641 14.5483 3.54797 14.5483C3.41019 14.5483 3.30174 14.5714 3.23863 14.6621C3.23419 14.543 3.22263 14.0701 3.22263 14.0701C3.21552 13.8941 3.45997 13.8985 3.61552 13.951C3.55597 13.7474 3.43597 13.6372 3.15597 13.6648C3.19892 13.6481 3.23557 13.6184 3.26076 13.5798C3.28595 13.5412 3.29842 13.4957 3.29641 13.4497C3.29641 13.2834 3.1613 13.0994 3.0733 13.0443L3.02886 14.7759ZM3.0733 2.20344C3.0733 2.20344 3.28397 2.02655 3.35508 2.11455C3.46974 2.25766 3.00219 2.96788 3.00219 3.21855C3.00219 3.62921 3.27686 3.74032 3.61463 3.79899C3.84219 3.83899 4.21197 3.78299 4.21197 3.78299C4.14086 3.68966 4.09641 3.6621 3.97908 3.65499C4.05992 3.61293 4.12739 3.5491 4.17388 3.47073C4.22037 3.39235 4.24403 3.30254 4.24219 3.21144C4.24219 2.85766 4.09641 2.71188 4.09641 2.31366C4.09641 2.09232 4.27774 1.81055 4.27774 1.81055C3.95774 1.84344 3.79774 2.13944 3.88841 2.37677C3.86405 2.38127 3.83897 2.37983 3.81529 2.37255C3.79161 2.36528 3.77004 2.35239 3.75241 2.33499C3.7293 2.40077 3.76663 2.47721 3.81552 2.54299C3.77552 2.56432 3.74619 2.55099 3.68308 2.53766C3.6893 2.6061 3.7293 2.67721 3.82886 2.74477C3.53997 2.6701 3.36308 2.87099 3.36308 3.08166C3.36308 3.24077 3.47419 3.35366 3.58352 3.35366C3.61908 3.35366 3.67063 3.33944 3.69997 3.31721C3.72041 3.36077 3.70975 3.41944 3.68841 3.46299C3.76841 3.44255 3.81819 3.39455 3.78263 3.29588C3.83714 3.29366 3.88856 3.27002 3.92574 3.2301C3.90855 3.20871 3.88654 3.19168 3.86152 3.1804C3.8365 3.16913 3.80916 3.16392 3.78175 3.16521C3.82619 3.07277 3.77641 3.02121 3.70441 2.98032C3.70441 2.98032 3.75063 3.16521 3.63241 3.16521C3.57908 3.16521 3.53108 3.14744 3.53108 3.0701C3.53108 3.00255 3.59063 2.90832 3.72752 2.91455C3.86441 2.91988 3.97552 3.00877 3.97552 3.22832C3.97552 3.4301 3.81286 3.52966 3.59863 3.53677C3.40574 3.5421 3.25997 3.43721 3.25997 3.2381C3.25997 2.97232 3.64397 2.36788 3.64397 2.13055C3.64397 1.95277 3.48486 1.85321 3.32841 1.85321C3.12574 1.85321 2.95508 2.0541 2.95508 2.0541L3.0733 2.20344Z" fill="#FFCC4D"/>
<path d="M3.07252 2.20344C3.07252 2.20344 2.86185 2.02655 2.79074 2.11455C2.67519 2.25855 3.14363 2.96877 3.14363 3.21944C3.14363 3.6301 2.86897 3.74121 2.53119 3.79988C2.30363 3.83899 1.93474 3.78299 1.93474 3.78299C2.00408 3.68966 2.04941 3.6621 2.16674 3.65499C2.08567 3.61313 2.01796 3.54938 1.9713 3.47098C1.92463 3.39257 1.90088 3.30266 1.90274 3.21144C1.90274 2.85766 2.04852 2.71188 2.04852 2.31366C2.04852 2.09232 1.86719 1.81055 1.86719 1.81055C2.18719 1.84344 2.34719 2.13944 2.25652 2.37677C2.28102 2.38112 2.30619 2.37961 2.32999 2.37235C2.35379 2.36508 2.37552 2.35228 2.39341 2.33499C2.41652 2.40077 2.38008 2.47721 2.3303 2.54299C2.36941 2.56432 2.39874 2.55099 2.46274 2.53766C2.45652 2.6061 2.41563 2.67721 2.31697 2.74477C2.60497 2.6701 2.78185 2.87099 2.78185 3.08166C2.78185 3.24077 2.67074 3.35366 2.56141 3.35366C2.51993 3.35276 2.47956 3.34012 2.44497 3.31721C2.42541 3.36166 2.43608 3.41944 2.45652 3.46299C2.37741 3.44255 2.32763 3.39455 2.36319 3.29677C2.33617 3.29581 2.30961 3.28951 2.28504 3.27821C2.26048 3.26692 2.2384 3.25087 2.22008 3.23099C2.23699 3.20945 2.2588 3.19225 2.28368 3.18081C2.30857 3.16937 2.33582 3.16402 2.36319 3.16521C2.31874 3.07277 2.36852 3.02121 2.44052 2.98032C2.44052 2.98032 2.3943 3.16521 2.51252 3.16521C2.56585 3.16521 2.61385 3.14744 2.61385 3.0701C2.61385 3.00255 2.5543 2.90832 2.41741 2.91455C2.27963 2.91988 2.16852 3.00877 2.16852 3.22744C2.16852 3.42921 2.33119 3.52877 2.54541 3.53588C2.73919 3.54121 2.88497 3.43721 2.88497 3.23721C2.88497 2.97144 2.50097 2.36699 2.50097 2.12966C2.50097 1.95188 2.66008 1.85232 2.81652 1.85232C3.01919 1.85232 3.18985 2.05321 3.18985 2.05321L3.07252 2.20344ZM3.02808 7.00344C3.02808 7.44699 3.4263 7.67544 3.73919 7.67544C4.16052 7.67544 4.38541 7.42299 4.38541 7.09232C4.38541 6.90566 4.35074 6.78832 4.26452 6.60877L3.2983 4.60166C3.26351 4.5179 3.24831 4.4273 3.25385 4.33677C3.25385 4.15721 3.42897 4.00966 3.61208 4.00521C3.7783 4.00166 3.96052 4.16077 3.96052 4.34299C3.96052 4.56432 3.84674 4.6621 3.72852 4.6621C3.58363 4.6621 3.52585 4.60255 3.52585 4.50032C3.52585 4.42921 3.56052 4.39899 3.60941 4.39899C3.73385 4.39899 3.69919 4.5661 3.69919 4.5661C3.71564 4.56262 3.73113 4.5556 3.74458 4.54552C3.75804 4.53543 3.76913 4.52254 3.77709 4.50773C3.78504 4.49291 3.78967 4.47655 3.79065 4.45976C3.79162 4.44298 3.78893 4.42618 3.78274 4.41055C3.82921 4.40065 3.87109 4.37564 3.90185 4.33944C3.86917 4.30574 3.82701 4.2828 3.78097 4.27366C3.8103 4.17766 3.77119 4.13144 3.68763 4.11099C3.70452 4.14832 3.70452 4.1821 3.69919 4.2141C3.56674 4.17677 3.36408 4.23632 3.36408 4.46477C3.36408 4.69144 3.52141 4.88255 3.81741 4.83544C3.7463 4.86921 3.71163 4.93766 3.70452 5.0141C3.74088 5.00115 3.77888 4.99337 3.81741 4.99099C3.78274 5.05144 3.73474 5.10388 3.73652 5.22388C3.79163 5.19899 3.8423 5.15277 3.91252 5.1821C3.8023 5.39899 3.93741 5.69677 4.2823 5.76788C4.16551 5.64006 4.09889 5.47431 4.09474 5.30121C4.09474 4.78744 4.23874 4.70032 4.23874 4.34299C4.23629 4.25969 4.21424 4.17813 4.1744 4.10493C4.13456 4.03173 4.07804 3.96895 4.00941 3.92166V3.92788C4.05121 3.91893 4.09071 3.90145 4.12543 3.87651C4.16016 3.85158 4.18935 3.81974 4.21119 3.78299C3.98008 3.71899 3.64497 3.71988 3.46541 3.79099C3.38448 3.80254 3.30718 3.8321 3.23918 3.87748C3.17119 3.92286 3.11424 3.98291 3.07252 4.05321C3.02901 4.15304 3.00656 4.26076 3.00656 4.36966C3.00656 4.47855 3.02901 4.58628 3.07252 4.6861C3.20941 4.97232 3.85474 6.34032 4.05563 6.77055C4.09935 6.86192 4.1227 6.9617 4.12408 7.06299C4.12408 7.32699 3.88319 7.41855 3.7463 7.41855C3.58185 7.41855 3.41474 7.29321 3.41474 7.13766C3.41474 7.03899 3.46897 6.97855 3.54541 6.97855C3.73119 6.97855 3.71963 7.13588 3.6823 7.23544C3.79697 7.18388 3.86452 7.09144 3.84585 6.99366C3.91846 6.98312 3.98445 6.94569 4.03074 6.88877C3.98541 6.83188 3.9303 6.78832 3.84585 6.78744C3.88319 6.63632 3.78185 6.57144 3.6823 6.53588C3.71341 6.64699 3.73385 6.77588 3.54541 6.77588C3.40763 6.77588 3.29919 6.79899 3.23608 6.88877C3.23163 6.76966 3.22008 6.29677 3.22008 6.29677C3.21297 6.11988 3.45741 6.12521 3.61297 6.17766C3.55519 5.97499 3.43519 5.86477 3.15519 5.89232C3.19814 5.87565 3.23479 5.84593 3.25998 5.80734C3.28517 5.76876 3.29764 5.72325 3.29563 5.67721C3.29563 5.51099 3.16052 5.3261 3.07252 5.27188L3.02808 7.00344Z" fill="#FFCC4D"/>
</svg>
