<svg width="26" height="25" viewBox="0 0 26 25" fill="none" xmlns="http://www.w3.org/2000/svg">
<g clip-path="url(#clip0_89_954)">
<path d="M13 14.6973C14.211 14.6973 15.2022 13.7109 15.2022 12.4951C15.2022 12.0166 15.0459 11.5723 14.7871 11.2109C14.3867 10.6592 13.7373 10.293 13.0049 10.293C12.2725 10.293 11.6231 10.6543 11.2227 11.2109C10.9639 11.5723 10.8076 12.0166 10.8076 12.4951C10.8028 13.7109 11.7891 14.6973 13 14.6973Z" fill="black"/>
<path d="M17.8047 9.80957V7.96387V7.69043H17.5313L15.6855 7.69531L15.6953 9.81445L17.8047 9.80957Z" fill="black"/>
<path d="M16.418 12.5C16.418 14.3848 14.8848 15.918 13 15.918C11.1152 15.918 9.58203 14.3848 9.58203 12.5C9.58203 12.0459 9.6748 11.6113 9.83594 11.2158H7.9707V16.333C7.9707 16.9922 8.50781 17.5293 9.16699 17.5293H16.833C17.4922 17.5293 18.0293 16.9922 18.0293 16.333V11.2158H16.1641C16.3301 11.6113 16.418 12.0459 16.418 12.5Z" fill="black"/>
<path d="M13 0C6.0957 0 0.5 5.5957 0.5 12.5C0.5 19.4043 6.0957 25 13 25C19.9043 25 25.5 19.4043 25.5 12.5C25.5 5.5957 19.9043 0 13 0ZM19.25 11.2158V16.333C19.25 17.666 18.166 18.75 16.833 18.75H9.16699C7.83398 18.75 6.75 17.666 6.75 16.333V11.2158V8.66211C6.75 7.3291 7.83398 6.24512 9.16699 6.24512H16.833C18.166 6.24512 19.25 7.3291 19.25 8.66211V11.2158Z" fill="black"/>
</g>
<defs>
<clipPath id="clip0_89_954">
<rect width="25" height="25" fill="white" transform="translate(0.5)"/>
</clipPath>
</defs>
</svg>
