<svg width="26" height="25" viewBox="0 0 26 25" fill="none" xmlns="http://www.w3.org/2000/svg">
<path d="M17.7828 7.84375C17.7875 7.84375 17.7937 7.84375 17.8 7.84375C17.9633 7.84375 18.1148 7.89453 18.2391 7.98203L18.2367 7.98047C18.3273 8.05938 18.3883 8.17031 18.4031 8.29531V8.29766C18.4187 8.39297 18.4273 8.50234 18.4273 8.61406C18.4273 8.66484 18.4258 8.71484 18.4219 8.76484V8.75781C18.2461 10.6086 17.4836 15.0969 17.0961 17.1688C16.932 18.0461 16.6094 18.3398 16.2969 18.368C15.618 18.4312 15.1023 17.9195 14.4445 17.4883C13.4148 16.8125 12.8328 16.3922 11.8336 15.7336C10.6781 14.9734 11.4273 14.5539 12.0852 13.8711C12.2578 13.6914 15.2508 10.9688 15.3094 10.7219C15.3125 10.707 15.3141 10.6906 15.3141 10.6734C15.3141 10.6125 15.2914 10.557 15.2547 10.5148C15.2141 10.4883 15.1633 10.4734 15.1102 10.4734C15.075 10.4734 15.0414 10.4805 15.0102 10.4922L15.0117 10.4914C14.9086 10.5148 13.2638 11.6018 10.0773 13.7523C9.72969 14.0266 9.29063 14.2 8.8125 14.2203H8.80781C8.13047 14.1383 7.51562 13.9875 6.93203 13.7727L6.98984 13.7914C6.25703 13.5523 5.675 13.4266 5.725 13.0219C5.75156 12.8115 6.04167 12.5961 6.59531 12.3758C10.0057 10.8898 12.2799 9.91042 13.418 9.4375C14.6734 8.77109 16.1289 8.22266 17.6594 7.86719L17.782 7.84297L17.7828 7.84375ZM12.9453 0.800781C6.45938 0.816406 1.20703 6.07812 1.20703 12.5664C1.20703 19.0641 6.47422 24.332 12.9727 24.332C19.4711 24.332 24.7383 19.0648 24.7383 12.5664C24.7383 6.07812 19.4859 0.816406 13.0016 0.800781H13C12.9818 0.800781 12.9635 0.800781 12.9453 0.800781Z" fill="#333333"/>
</svg>
