<svg width="26" height="25" viewBox="0 0 26 25" fill="none" xmlns="http://www.w3.org/2000/svg">
<g clip-path="url(#clip0_89_960)">
<path fill-rule="evenodd" clip-rule="evenodd" d="M20.2763 17.6514C19.975 18.5041 18.7775 19.2096 17.8225 19.4159C17.1688 19.5547 16.3162 19.6645 13.4437 18.4741C10.2175 17.1375 5.7375 12.3762 5.7375 9.20776C5.7375 7.59478 6.6675 5.71655 8.29375 5.71655C9.07625 5.71655 9.24875 5.73181 9.50625 6.34949C9.8075 7.07721 10.5425 8.87016 10.63 9.05396C10.9913 9.80793 10.2625 10.2493 9.73374 10.9058C9.56499 11.1033 9.37376 11.317 9.58751 11.6846C9.8 12.0447 10.535 13.2426 11.615 14.2041C13.01 15.447 14.1412 15.8438 14.5462 16.0126C14.8475 16.1376 15.2075 16.1085 15.4275 15.8734C15.7063 15.5721 16.0525 15.0721 16.405 14.5795C16.6537 14.2269 16.97 14.1828 17.3013 14.3079C17.525 14.3854 20.3687 15.706 20.4887 15.9174C20.5775 16.0712 20.5775 16.7986 20.2763 17.6514ZM13.0025 0H12.9962C6.10499 0 0.5 5.60669 0.5 12.5C0.5 15.2333 1.38126 17.7692 2.88001 19.826L1.32251 24.4708L6.12626 22.9358C8.10251 24.2437 10.4612 25 13.0025 25C19.8937 25 25.5 19.3933 25.5 12.5C25.5 5.60669 19.8937 0 13.0025 0Z" fill="black"/>
</g>
<defs>
<clipPath id="clip0_89_960">
<rect width="25" height="25" fill="white" transform="translate(0.5)"/>
</clipPath>
</defs>
</svg>
