<svg width="27" height="20" viewBox="0 0 27 20" fill="none" xmlns="http://www.w3.org/2000/svg">
<path d="M8.95312 11.9883C8.60156 13.4336 7.94727 14.6836 6.99023 15.7383C5.95508 16.8711 4.73438 17.7207 3.32812 18.2871C1.94141 18.873 0.984375 19.166 0.457031 19.166V15.9434C2.13672 15.4746 3.36719 14.6934 4.14844 13.5996C4.94922 12.5059 5.4082 10.9727 5.52539 9H0.457031V0.269531H9.48047V7.82812C9.48047 9.15625 9.30469 10.543 8.95312 11.9883ZM25.6523 11.9883C25.3008 13.4336 24.6465 14.6836 23.6895 15.7383C22.6543 16.8711 21.4336 17.7207 20.0273 18.2871C18.6406 18.873 17.6836 19.166 17.1562 19.166V15.9434C18.8359 15.4746 20.0664 14.6934 20.8477 13.5996C21.6484 12.5059 22.1074 10.9727 22.2246 9H17.1562V0.269531H26.1797V7.82812C26.1797 9.15625 26.0039 10.543 25.6523 11.9883Z" fill="#7ACB0B"/>
</svg>
