<svg width="23" height="24" viewBox="0 0 23 24" fill="none" xmlns="http://www.w3.org/2000/svg">
<path d="M5.27 23.32C5.27 23.05 5.24 22.93 5.12 22.93L4.43 23.26C4.43 23.11 4.34 23.02 4.19 22.96L3.95 22.93C3.74 22.93 3.65 22.96 3.35 23.14C3.26 22.96 3.14 22.75 3.05 22.57C2.27 21.07 1.46 18.82 1.1 17.83C0.92 17.32 0.74 16.27 0.53 14.68C0.77 14.83 0.95 14.89 1.04 14.89C1.16 14.89 1.31 14.68 1.43 14.26C1.49 14.35 1.61 14.38 1.76 14.38C1.85 14.38 1.97 14.35 2.03 14.26L2.51 13.54L3.05 13.72H3.08C3.14 13.72 3.23 13.63 3.38 13.54C3.53 13.45 3.65 13.39 3.74 13.39L3.83 13.42C4.31 13.66 4.64 14.08 4.79 14.74C5.15 16.27 5.48 17.02 5.87 17.02C6.2 17.02 6.65 16.63 7.13 15.88C7.61 15.13 8.09 14.11 8.63 12.88C8.66 13.12 8.69 13.24 8.75 13.24C8.93 13.24 9.38 12.19 10.49 10.42C12.14 7.75 16.22 2.62 17.27 1.9C18.05 1.36 18.65 0.849999 19.07 0.399999C19.01 0.699999 18.95 0.91 18.95 0.999999C18.95 1.09 19.01 1.12 19.07 1.12L19.91 0.699999V0.819999C19.91 0.969999 19.94 1.06 20.03 1.06C20.15 1.06 20.63 0.579999 20.69 0.399999L20.63 0.819999L21.65 0.22L21.41 0.76C21.71 0.549999 21.95 0.429999 22.1 0.429999C22.25 0.429999 22.34 0.669999 22.34 0.819999C22.34 1.06 22.13 1.39 21.8 1.81C21.44 2.29 20.54 3.22 17.84 6.31C16.67 7.63 11.48 14.68 10.49 16.36L8.63 19.51C7.82 20.86 7.31 21.73 7.04 22.06C6.77 22.39 6.44 22.72 6.05 23.02L5.78 22.87L5.54 23.02L5.27 23.32Z" fill="#7ACB0B"/>
</svg>
