<svg width="22" height="24" viewBox="0 0 22 24" fill="none" xmlns="http://www.w3.org/2000/svg">
<path d="M21 4.66667H1.58824M6.44118 4.66667L6.76948 3.67431C7.08771 2.71264 7.24689 2.2318 7.54195 1.87631C7.80255 1.56238 8.13716 1.31939 8.5152 1.16962C8.94335 1 9.44636 1 10.4526 1H12.1356C13.1419 1 13.6449 1 14.073 1.16962C14.4511 1.31939 14.7857 1.56238 15.0463 1.87631C15.3414 2.2318 15.5005 2.71264 15.8187 3.67431L16.1471 4.66667M4.01471 4.66667V17.1333C4.01471 19.1869 4.01471 20.2136 4.41143 20.998C4.76036 21.6879 5.31712 22.2488 6.00199 22.6003C6.78064 23 7.79976 23 9.83824 23H12.75C14.7884 23 15.8076 23 16.5862 22.6003C17.2711 22.2488 17.8279 21.6879 18.1768 20.998C18.5735 20.2136 18.5735 19.1869 18.5735 17.1333V4.66667M8.86765 9.55556V18.1111M13.7206 9.55556V18.1111" stroke="#7D7D7D" stroke-width="2" stroke-linecap="round" stroke-linejoin="round"/>
</svg>
