<svg width="800" height="520" viewBox="0 0 800 520" fill="none" xmlns="http://www.w3.org/2000/svg">
<path d="M626.665 360C582.545 360 546.665 395.88 546.665 440C546.665 484.12 582.545 520 626.665 520C670.785 520 706.665 484.12 706.665 440C706.665 395.88 670.784 360 626.665 360ZM626.665 493.333C597.251 493.333 573.332 469.413 573.332 440C573.332 410.588 597.253 386.667 626.665 386.667C656.079 386.667 679.998 410.588 679.998 440C679.998 469.413 656.078 493.333 626.665 493.333Z" fill="#7ACB0B"/>
<path d="M173.331 360C129.211 360 93.3311 395.88 93.3311 440C93.3311 484.12 129.211 520 173.331 520C217.451 520 253.331 484.12 253.331 440C253.331 395.88 217.451 360 173.331 360ZM173.331 493.333C143.917 493.333 119.998 469.413 119.998 440C119.998 410.588 143.919 386.667 173.331 386.667C202.744 386.667 226.664 410.588 226.664 440C226.664 469.413 202.745 493.333 173.331 493.333Z" fill="#7ACB0B"/>
<path d="M798.319 246.853L731.652 126.853C729.305 122.627 724.837 120 719.998 120H559.998C552.639 120 546.666 125.973 546.666 133.333V333.333H519.998C519.998 232.653 519.998 53.3328 519.998 53.3328C519.998 23.9188 496.078 0 466.666 0H26.6656C19.3062 0 13.3328 5.97344 13.3328 13.3328V320C5.97344 320 0 325.973 0 333.333V400.012C0 403.559 1.4 406.945 3.90625 409.453C6.4125 411.947 9.8 413.347 13.3328 413.347H13.3469L53.3328 413.334C53.3328 413.334 66.6656 413.334 73.4391 402.508C88.9984 361.055 128.88 333.334 173.333 333.334C218.48 333.334 258.892 361.908 273.933 404.441C275.812 409.773 280.853 413.334 286.506 413.334H506.666C514.025 413.334 519.998 407.361 519.998 400.002C519.998 399.989 519.998 399.961 519.998 399.934C519.998 399.108 519.998 383.694 519.998 360.002H551.239C554.292 360.002 557.253 358.948 559.625 357.028C578.784 341.522 601.958 333.334 626.666 333.334C671.812 333.334 712.225 361.908 727.266 404.441C729.145 409.773 734.186 413.334 739.839 413.334H786.666C794.025 413.334 799.998 407.361 799.998 400.002V253.334C799.998 251.067 799.425 248.841 798.319 246.853ZM295.572 386.68V386.666C274.519 338.439 226.545 306.666 173.331 306.666C120.131 306.666 72.1719 338.425 51.1047 386.625C44.1844 386.639 34.4906 386.652 26.6641 386.666V346.666C34.0234 346.666 39.9969 340.692 39.9969 333.333V293.333H53.3297C60.6891 293.333 66.6625 287.359 66.6625 280C66.6625 272.641 60.6891 266.667 53.3297 266.667H39.9984V160H394.478L363.905 190.573C358.691 195.786 358.691 204.214 363.905 209.427C366.505 212.027 369.919 213.333 373.331 213.333C376.745 213.333 380.158 212.027 382.758 209.427L436.092 156.094C441.306 150.88 441.306 142.453 436.092 137.241L382.758 83.9063C377.544 78.6938 369.117 78.6938 363.905 83.9063C358.692 89.1203 358.691 97.5469 363.905 102.759L394.478 133.333H39.9984V26.6656H466.666C481.372 26.6656 493.333 38.625 493.333 53.3328V345.839C493.333 363.813 493.333 376.998 493.586 386.68H295.572ZM626.666 146.667H712.159L764.012 240H626.666V146.667ZM773.331 293.333H759.998C752.639 293.333 746.666 299.306 746.666 306.666C746.666 314.025 752.639 319.998 759.998 319.998H773.331V386.666H748.905C727.852 338.439 679.878 306.666 626.664 306.666C608.238 306.666 590.05 310.533 573.331 317.812V146.667H599.998V253.334C599.998 260.694 605.972 266.667 613.331 266.667H773.331V293.333Z" fill="#7ACB0B"/>
</svg>
