<svg width="768" height="770" viewBox="0 0 768 770" fill="none" xmlns="http://www.w3.org/2000/svg">
<path d="M125.841 3.10889L642.769 0.510742V228.316C642.769 228.316 704.813 255.129 712.295 260.014C734.743 274.875 768 280.799 768 355.938V692.346C768 735.163 733.289 769.771 690.575 769.771H77.6196C34.8021 769.771 0.194767 735.059 0.194767 692.346V374.644C0.194767 369.032 0.818323 358.847 0.194767 346.584C-1.15627 319.771 4.04004 293.478 31.0608 273.628C46.7536 262.092 66.9152 254.402 84.063 246.711C107.342 236.215 125.841 228.109 125.841 228.109V3.10889Z" fill="white"/>
<path d="M125.841 273.628L85.6217 291.607L85.206 291.815C68.37 298.466 57.7696 304.702 51.3262 311.041L125.945 351.365V273.628H125.841ZM681.845 291.191L642.769 273.836V351.157L716.141 311.457C709.385 305.637 698.577 299.506 681.845 291.191Z" fill="#E6E6E6"/>
<path d="M115.241 641.318V440.845C115.241 435.129 110.565 430.453 104.849 430.453C99.1327 430.453 94.4561 435.129 94.4561 440.845V641.318C94.4561 661.584 110.98 678.108 131.246 678.108H441.777C447.493 678.108 452.169 673.432 452.169 667.716C452.169 662 447.493 657.323 441.777 657.323H131.142C122.412 657.219 115.241 650.048 115.241 641.318Z" fill="#7ACB0B"/>
<path d="M765.194 313.016C765.194 313.224 765.298 313.328 765.298 313.432C765.298 313.328 765.194 313.12 765.194 313.016ZM483.762 352.3C499.767 343.466 512.446 331.307 520.24 317.589C522.735 315.303 524.19 312.289 524.398 308.963C524.709 308.132 525.125 307.196 525.437 306.365H524.398C524.19 299.298 518.266 293.686 511.095 293.686C504.236 293.686 498.52 298.882 497.896 305.741H497.689C487.4 318.628 473.786 327.67 456.95 334.113C440.114 340.557 419.952 344.714 396.465 344.714C372.146 344.714 351.984 339.933 333.07 332.242C314.467 324.76 298.774 311.561 288.174 294.621C277.781 277.889 272.585 260.014 272.585 239.54C272.585 218.547 277.885 198.386 287.238 178.952C296.28 159.933 310.934 144.24 329.225 133.848C347.723 123.143 368.924 117.635 395.425 117.635C426.707 117.635 451.13 125.845 468.589 141.85C486.049 157.855 491.245 177.808 491.245 201.607C491.245 214.91 489.582 227.693 483.451 240.06C477.319 252.427 471.291 259.182 461.314 266.561C453.936 272.173 437.308 278.721 432.527 278.721C430.968 278.721 429.617 278.097 428.474 276.85C427.331 275.707 426.811 273.836 426.811 271.446C427.123 266.977 427.85 262.508 428.89 258.039L450.714 174.587C451.753 172.716 452.585 170.741 452.585 168.455L452.481 167.832L452.585 167.416H452.481V167.312C452.481 160.349 446.661 154.633 439.594 154.633C436.164 154.633 432.943 155.88 430.448 158.27C428.058 160.661 426.603 163.882 426.603 167.312L426.707 168.455C426.707 169.287 427.019 170.014 427.227 170.741L425.876 175.626C417.562 162.427 398.024 154.321 380.46 154.321C365.599 154.321 343.358 164.61 328.185 187.785C316.961 205.557 310.518 225.926 309.686 246.815C309.063 265.21 314.571 281.527 325.275 292.543C335.98 303.559 349.178 306.781 357.388 306.781C372.458 306.781 385.864 301.272 397.4 290.256C398.543 295.245 401.453 299.61 405.61 302.52C409.663 305.326 415.795 306.781 424.005 306.781C454.247 306.781 482.1 290.984 497.481 269.783C510.679 251.804 518.058 227.589 518.058 202.959C518.058 182.277 514.732 163.155 504.548 145.695C494.363 128.236 481.268 114.725 462.042 105.268C442.816 95.8109 420.887 91.0303 396.153 91.0303C367.054 91.0303 341.072 96.9541 318.416 108.698C295.76 120.441 277.885 138.109 264.894 161.492C251.8 184.979 245.252 210.233 245.252 237.462C245.045 261.469 250.968 285.06 262.504 306.157C274.144 327.878 292.643 345.025 315.091 355.21C338.682 366.018 366.534 371.423 398.959 371.423C432.215 371.423 460.587 365.083 483.762 352.3ZM403.532 241.203C399.686 252.531 395.218 261.157 390.021 267.081C386.384 271.238 382.642 274.252 379.005 276.226C374.121 278.928 370.483 281.007 364.871 281.007C357.388 281.007 347.931 278.097 342.943 272.277C337.85 266.457 335.356 257.416 335.356 245.152C335.356 236.007 340.137 225.407 343.774 213.559C347.412 201.711 352.816 195.684 359.987 189.24C367.158 182.797 373.705 181.03 382.123 181.03C390.021 181.03 398.335 183.317 403.428 189.136C408.624 194.956 411.846 199.529 411.846 210.441C411.95 220.106 407.273 229.875 403.532 241.203Z" fill="#7ACB0B"/>
<path d="M765.298 313.432C765.298 313.224 765.194 313.12 765.194 313.016C756.153 281.63 726.534 266.977 699.929 253.778L699.513 253.57L642.77 228.213V0.510742L125.842 3.10889V228.109L69.5139 253.259C37.193 266.042 0.195312 286.827 0.195312 333.801V692.45C0.195312 735.059 34.9066 769.771 77.5162 769.771H690.679C733.289 769.771 768 735.059 768 692.45V333.801C768 326.319 767.065 319.563 765.298 313.432ZM642.77 273.836L681.846 291.296C698.682 299.61 709.386 305.741 716.141 311.457L642.77 351.157V273.836ZM167.412 241.203V44.4714L601.199 42.289V373.605L394.387 485.533C388.047 488.963 380.357 488.963 374.017 485.533L167.412 373.813V241.203ZM125.842 273.628V351.365L51.223 310.938C57.6664 304.598 125.842 273.628 125.842 273.628ZM726.43 692.45C726.43 712.196 710.425 728.2 690.679 728.2H77.5162C57.7703 728.2 41.7657 712.196 41.7657 692.45V353.132L354.063 522.219C363.417 527.311 373.705 529.806 384.098 529.806C394.386 529.806 404.675 527.311 414.132 522.219L726.43 353.132V692.45Z" fill="#7ACB0B"/>
</svg>
