<svg width="768" height="729" viewBox="0 0 768 729" fill="none" xmlns="http://www.w3.org/2000/svg">
<path d="M526.91 497.892L544.849 480.056L503.195 438.165L485.26 456.001L526.91 497.892ZM605.087 472.585L680.326 513.487L708.539 461.59L633.3 420.688L605.087 472.585ZM694.811 594.779L638.865 650.406L680.515 692.296L736.461 636.669L694.811 594.779ZM604.776 668.316C547.677 673.637 399.948 668.895 240.002 509.856L198.35 551.746C372.892 725.298 539.016 733.773 610.258 727.133L604.776 668.316ZM240.002 509.856C87.5397 358.26 62.2846 230.755 59.1407 175.44L0.163385 178.791C4.11968 248.412 35.3916 389.714 198.35 551.746L240.002 509.856ZM294.164 266.465L305.459 255.234L263.809 213.345L252.514 224.576L294.164 266.465ZM314.45 112.073L264.791 45.7381L217.502 81.14L267.16 147.475L314.45 112.073ZM97.7723 31.3L35.9587 92.7627L77.6104 134.652L139.424 73.1896L97.7723 31.3ZM273.339 245.52C252.514 224.576 252.485 224.603 252.457 224.632C252.447 224.641 252.419 224.67 252.4 224.689C252.361 224.728 252.322 224.768 252.282 224.808C252.202 224.89 252.119 224.974 252.034 225.063C251.864 225.239 251.683 225.431 251.494 225.637C251.114 226.05 250.697 226.521 250.25 227.054C249.357 228.119 248.345 229.431 247.282 231.001C245.15 234.147 242.828 238.307 240.857 243.538C236.834 254.213 234.678 268.284 237.382 285.709C242.668 319.785 266.136 364.797 326.252 424.571L367.903 382.68C311.646 326.742 298.244 292.701 295.755 276.652C294.57 269.015 295.798 265.256 296.137 264.366C296.342 263.816 296.44 263.759 296.188 264.135C296.062 264.319 295.854 264.607 295.527 264.995C295.365 265.189 295.172 265.409 294.948 265.654C294.834 265.776 294.715 265.905 294.582 266.04C294.519 266.108 294.452 266.177 294.381 266.248C294.345 266.283 294.31 266.319 294.274 266.355C294.259 266.373 294.231 266.401 294.219 266.41C294.192 266.438 294.164 266.465 273.339 245.52ZM326.252 424.571C386.388 484.364 431.61 507.635 465.743 512.873C483.185 515.547 497.248 513.412 507.917 509.439C513.147 507.489 517.313 505.193 520.464 503.082C522.039 502.027 523.354 501.023 524.422 500.137C524.957 499.695 525.43 499.282 525.843 498.904C526.052 498.715 526.245 498.538 526.422 498.368C526.513 498.282 526.595 498.199 526.678 498.12C526.718 498.081 526.757 498.041 526.796 498.002C526.816 497.982 526.847 497.955 526.855 497.947C526.883 497.919 526.91 497.892 506.085 476.945C485.26 456.001 485.288 455.974 485.315 455.946C485.323 455.938 485.351 455.911 485.371 455.891C485.406 455.856 485.441 455.82 485.477 455.785C485.552 455.718 485.619 455.651 485.686 455.584C485.823 455.454 485.953 455.336 486.075 455.222C486.32 455.001 486.54 454.808 486.737 454.651C487.123 454.328 487.411 454.123 487.588 454.001C487.954 453.757 487.879 453.867 487.296 454.083C486.331 454.442 482.468 455.675 474.702 454.481C458.426 451.988 424.144 438.599 367.903 382.68L326.252 424.571ZM264.791 45.7381C224.649 -7.88374 145.713 -16.3685 97.7723 31.3L139.424 73.1896C160.363 52.3696 197.55 54.4887 217.502 81.14L264.791 45.7381ZM59.1407 175.44C58.3661 161.809 64.6176 147.571 77.6104 134.652L35.9587 92.7627C14.7981 113.803 -1.8376 143.588 0.163385 178.791L59.1407 175.44ZM638.865 650.406C628.043 661.169 616.441 667.23 604.776 668.316L610.258 727.133C639.188 724.436 662.892 709.821 680.515 692.296L638.865 650.406ZM305.459 255.234C344.23 216.682 347.113 155.703 314.45 112.073L267.16 147.475C283.051 168.701 280.688 196.561 263.809 213.345L305.459 255.234ZM680.326 513.487C712.533 530.996 717.55 572.166 694.811 594.779L736.461 636.669C789.244 584.185 772.968 496.612 708.539 461.59L680.326 513.487ZM544.849 480.056C559.971 465.02 584.313 461.294 605.087 472.585L633.3 420.688C590.626 397.488 537.666 403.895 503.195 438.165L544.849 480.056Z" fill="#7ACB0B"/>
</svg>
