<svg width="758" height="892" viewBox="0 0 758 892" fill="none" xmlns="http://www.w3.org/2000/svg">
<path d="M49.7988 317.775V310.263C49.7988 294.54 62.773 281.928 78.4614 282.401L392.896 291.874C407.932 292.327 419.885 304.668 419.885 319.737V621.613H230.668M230.668 621.613V607.675C230.668 579.962 208.244 557.5 180.581 557.5C152.92 557.5 130.494 579.962 130.494 607.675V621.613M230.668 621.613C230.668 645.836 210.357 665.081 186.215 663.737L169.391 662.801C147.569 661.585 130.494 643.506 130.494 621.613M230.668 621.613H486.668M130.494 621.613H77.6249C62.2571 621.613 49.7988 609.13 49.7988 593.738V521.262M486.668 621.613V610.463C486.668 581.21 510.337 557.5 539.537 557.5C568.738 557.5 592.407 581.21 592.407 610.463V621.613M486.668 621.613C486.668 646.243 506.602 666.213 531.19 666.213H547.885C572.472 666.213 592.407 646.243 592.407 621.613M592.407 621.613H667.537C682.908 621.613 695.363 609.13 695.363 593.738V485.025C695.363 469.63 682.908 457.15 667.537 457.15H659.763C652.278 457.15 645.11 454.13 639.873 448.772L528.246 334.515C523.009 329.157 515.841 326.137 508.355 326.137H431.016" stroke="#7ACB0B" stroke-width="30" stroke-linecap="round"/>
<path d="M501.06 370.738H464.407C461.335 370.738 458.842 373.233 458.842 376.313V457.15C458.842 460.229 461.335 462.725 464.407 462.725H581.755C586.714 462.725 589.196 456.72 585.69 453.208L504.994 372.37C503.948 371.325 502.534 370.738 501.06 370.738Z" stroke="#7ACB0B" stroke-width="30"/>
<path d="M10.8423 362.375H149.973" stroke="#7ACB0B" stroke-width="30" stroke-linecap="round"/>
<path d="M-94.8965 429.275H119.364" stroke="#7ACB0B" stroke-width="30" stroke-linecap="round"/>
<path d="M10.8423 485.025H155.538" stroke="#7ACB0B" stroke-width="30" stroke-linecap="round"/>
</svg>
