<svg width="24" height="21" viewBox="0 0 24 21" fill="none" xmlns="http://www.w3.org/2000/svg">
<g clip-path="url(#clip0_1_447)">
<path d="M22.5 9C22.9141 9 23.2676 9.14648 23.5605 9.43945C23.8535 9.73242 24 10.0859 24 10.5C24 10.9141 23.8535 11.2676 23.5605 11.5605C23.2676 11.8535 22.9141 12 22.5 12H22.3242L20.9766 19.7578C20.9141 20.1172 20.7422 20.4141 20.4609 20.6484C20.1797 20.8828 19.8594 21 19.5 21H4.5C4.14062 21 3.82031 20.8828 3.53906 20.6484C3.25781 20.4141 3.08594 20.1172 3.02344 19.7578L1.67578 12H1.5C1.08594 12 0.732422 11.8535 0.439453 11.5605C0.146484 11.2676 0 10.9141 0 10.5C0 10.0859 0.146484 9.73242 0.439453 9.43945C0.732422 9.14648 1.08594 9 1.5 9H22.5ZM5.68359 18.375C5.88672 18.3594 6.05664 18.2715 6.19336 18.1113C6.33008 17.9512 6.39062 17.7695 6.375 17.5664L6 12.6914C5.98438 12.4883 5.89648 12.3184 5.73633 12.1816C5.57617 12.0449 5.39453 11.9844 5.19141 12C4.98828 12.0156 4.81836 12.1035 4.68164 12.2637C4.54492 12.4238 4.48438 12.6055 4.5 12.8086L4.875 17.6836C4.89062 17.8789 4.9707 18.043 5.11523 18.1758C5.25977 18.3086 5.42969 18.375 5.625 18.375H5.68359ZM10.5 17.625V12.75C10.5 12.5469 10.4258 12.3711 10.2773 12.2227C10.1289 12.0742 9.95312 12 9.75 12C9.54688 12 9.37109 12.0742 9.22266 12.2227C9.07422 12.3711 9 12.5469 9 12.75V17.625C9 17.8281 9.07422 18.0039 9.22266 18.1523C9.37109 18.3008 9.54688 18.375 9.75 18.375C9.95312 18.375 10.1289 18.3008 10.2773 18.1523C10.4258 18.0039 10.5 17.8281 10.5 17.625ZM15 17.625V12.75C15 12.5469 14.9258 12.3711 14.7773 12.2227C14.6289 12.0742 14.4531 12 14.25 12C14.0469 12 13.8711 12.0742 13.7227 12.2227C13.5742 12.3711 13.5 12.5469 13.5 12.75V17.625C13.5 17.8281 13.5742 18.0039 13.7227 18.1523C13.8711 18.3008 14.0469 18.375 14.25 18.375C14.4531 18.375 14.6289 18.3008 14.7773 18.1523C14.9258 18.0039 15 17.8281 15 17.625ZM19.125 17.6836L19.5 12.8086C19.5156 12.6055 19.4551 12.4238 19.3184 12.2637C19.1816 12.1035 19.0117 12.0156 18.8086 12C18.6055 11.9844 18.4238 12.0449 18.2637 12.1816C18.1035 12.3184 18.0156 12.4883 18 12.6914L17.625 17.5664C17.6094 17.7695 17.6699 17.9512 17.8066 18.1113C17.9434 18.2715 18.1133 18.3594 18.3164 18.375H18.375C18.5703 18.375 18.7402 18.3086 18.8848 18.1758C19.0293 18.043 19.1094 17.8789 19.125 17.6836ZM5.57812 3.42188L4.48828 8.25H2.94141L4.125 3.08203C4.27344 2.39453 4.62109 1.83398 5.16797 1.40039C5.71484 0.966797 6.33984 0.75 7.04297 0.75H9C9 0.546875 9.07422 0.371094 9.22266 0.222656C9.37109 0.0742188 9.54688 0 9.75 0H14.25C14.4531 0 14.6289 0.0742188 14.7773 0.222656C14.9258 0.371094 15 0.546875 15 0.75H16.957C17.6602 0.75 18.2852 0.966797 18.832 1.40039C19.3789 1.83398 19.7266 2.39453 19.875 3.08203L21.0586 8.25H19.5117L18.4219 3.42188C18.3359 3.07812 18.1582 2.79688 17.8887 2.57812C17.6191 2.35938 17.3086 2.25 16.957 2.25H15C15 2.45312 14.9258 2.62891 14.7773 2.77734C14.6289 2.92578 14.4531 3 14.25 3H9.75C9.54688 3 9.37109 2.92578 9.22266 2.77734C9.07422 2.62891 9 2.45312 9 2.25H7.04297C6.69141 2.25 6.38086 2.35938 6.11133 2.57812C5.8418 2.79688 5.66406 3.07812 5.57812 3.42188Z" fill="white"/>
</g>
<defs>
<clipPath id="clip0_1_447">
<rect width="24" height="21" fill="white"/>
</clipPath>
</defs>
</svg>
