<svg width="22" height="22" viewBox="0 0 22 22" fill="none" xmlns="http://www.w3.org/2000/svg">
<rect width="22" height="22" rx="3" fill="#7ACB0B"/>
<path d="M8.32884 14.5163L5.20494 11.0018C5.08607 10.8679 4.91887 10.7867 4.74013 10.7761C4.56139 10.7654 4.38575 10.8262 4.25184 10.9451C4.11793 11.064 4.03673 11.2312 4.02609 11.4099C4.01546 11.5887 4.07627 11.7643 4.19514 11.8982L7.79514 15.9482C7.85625 16.017 7.93077 16.0725 8.01413 16.1114C8.09749 16.1503 8.18792 16.1718 8.27987 16.1745C8.37183 16.1772 8.46336 16.1611 8.54886 16.1271C8.63435 16.0931 8.712 16.0421 8.77704 15.977L18.227 6.52701C18.3463 6.39905 18.4112 6.22981 18.4081 6.05494C18.405 5.88007 18.3342 5.71322 18.2105 5.58955C18.0868 5.46588 17.92 5.39504 17.7451 5.39195C17.5702 5.38887 17.401 5.45378 17.273 5.57301L8.32884 14.5163Z" fill="white"/>
</svg>
